<svg preserveAspectRatio="none" width="100%" height="100%" overflow="visible" style="display: block;" viewBox="0 0 24 17" fill="none" xmlns="http://www.w3.org/2000/svg">
<g id="Frame 2609984">
<rect width="24" height="17" fill="white"/>
<g id="Element">
<path d="M12.2354 13.1667H11.7648L11.8825 11.3C11.8758 11.2017 11.8283 11.1759 11.6472 11.1833L9.76485 11.4167C9.76485 11.4167 10.1178 10.95 10.1178 10.7167C10.1178 10.4833 8.00015 8.96667 8.00015 8.96667C8.00015 8.96667 8.47074 8.85 8.58839 8.73333C8.70603 8.61667 8.1178 7.33333 8.1178 7.33333C8.1178 7.33333 9.31335 7.8 9.41191 7.68333C9.51047 7.56667 9.6472 7.1 9.6472 7.1C9.6472 7.1 10.5884 8.15 10.8237 8.15C11.059 8.15 10.3531 5.58333 10.3531 5.58333C10.3531 5.58333 10.9413 6.05 11.1766 6.05C11.4119 6.05 12.0001 4.53333 12.0001 4.53333C12.0001 4.53333 12.5884 6.05 12.706 6.05C12.8237 6.05 13.6472 5.58333 13.6472 5.58333C13.6472 5.58333 13.059 8.03333 13.1766 8.15C13.2942 8.26667 14.3531 7.1 14.3531 7.1C14.3531 7.1 14.4707 7.56667 14.5884 7.68333C14.706 7.8 15.8825 7.33333 15.8825 7.33333C15.8825 7.33333 15.2942 8.61667 15.4119 8.73333C15.5295 8.85 16.0001 8.96667 16.0001 8.96667C16.0001 8.96667 13.8825 10.4833 13.8825 10.7167C13.8825 10.95 14.1178 11.4167 14.1178 11.4167L12.3531 11.1833C12.2112 11.143 12.1621 11.1736 12.1178 11.3L12.2354 13.1667Z" fill="var(--fill-0, #F93939)"/>
<path d="M18.2857 0H24V17H18.2857V0Z" fill="var(--fill-0, #F93939)"/>
<path d="M0 0H5.71426V17H0V0Z" fill="var(--fill-0, #F93939)"/>
</g>
</g>
</svg>
