<svg preserveAspectRatio="none" width="100%" height="100%" overflow="visible" style="display: block;" viewBox="0 0 28.8 28.8" fill="none" xmlns="http://www.w3.org/2000/svg">
<g id="QrCode">
<path id="Vector (Stroke)" fill-rule="evenodd" clip-rule="evenodd" d="M4.5 6.3C4.5 5.30589 5.30589 4.5 6.3 4.5H11.7C12.6941 4.5 13.5 5.30589 13.5 6.3V11.7C13.5 12.6941 12.6941 13.5 11.7 13.5H6.3C5.30589 13.5 4.5 12.6941 4.5 11.7V6.3ZM11.7 6.3H6.3V11.7H11.7V6.3Z" fill="var(--fill-0, black)" fill-opacity="0.56"/>
<path id="Vector (Stroke)_2" fill-rule="evenodd" clip-rule="evenodd" d="M4.5 17.1C4.5 16.1059 5.30589 15.3 6.3 15.3H11.7C12.6941 15.3 13.5 16.1059 13.5 17.1V22.5C13.5 23.4941 12.6941 24.3 11.7 24.3H6.3C5.30589 24.3 4.5 23.4941 4.5 22.5V17.1ZM11.7 17.1H6.3V22.5H11.7V17.1Z" fill="var(--fill-0, black)" fill-opacity="0.56"/>
<path id="Vector (Stroke)_3" fill-rule="evenodd" clip-rule="evenodd" d="M15.3 6.3C15.3 5.30589 16.1059 4.5 17.1 4.5H22.5C23.4941 4.5 24.3 5.30589 24.3 6.3V11.7C24.3 12.6941 23.4941 13.5 22.5 13.5H17.1C16.1059 13.5 15.3 12.6941 15.3 11.7V6.3ZM22.5 6.3H17.1V11.7H22.5V6.3Z" fill="var(--fill-0, black)" fill-opacity="0.56"/>
<path id="Vector (Stroke)_4" fill-rule="evenodd" clip-rule="evenodd" d="M16.2 15.3C16.6971 15.3 17.1 15.7029 17.1 16.2V19.8C17.1 20.2971 16.6971 20.7 16.2 20.7C15.7029 20.7 15.3 20.2971 15.3 19.8V16.2C15.3 15.7029 15.7029 15.3 16.2 15.3Z" fill="var(--fill-0, black)" fill-opacity="0.56"/>
<path id="Vector (Stroke)_5" fill-rule="evenodd" clip-rule="evenodd" d="M19.8 15.3C20.2971 15.3 20.7 15.7029 20.7 16.2V23.4C20.7 23.8971 20.2971 24.3 19.8 24.3H16.2C15.7029 24.3 15.3 23.8971 15.3 23.4C15.3 22.9029 15.7029 22.5 16.2 22.5H18.9V16.2C18.9 15.7029 19.3029 15.3 19.8 15.3Z" fill="var(--fill-0, black)" fill-opacity="0.56"/>
<path id="Vector (Stroke)_6" fill-rule="evenodd" clip-rule="evenodd" d="M18.9 18C18.9 17.5029 19.3029 17.1 19.8 17.1H23.4C23.8971 17.1 24.3 17.5029 24.3 18C24.3 18.4971 23.8971 18.9 23.4 18.9H19.8C19.3029 18.9 18.9 18.4971 18.9 18Z" fill="var(--fill-0, black)" fill-opacity="0.56"/>
<path id="Vector (Stroke)_7" fill-rule="evenodd" clip-rule="evenodd" d="M23.4 20.7C23.8971 20.7 24.3 21.1029 24.3 21.6V23.4C24.3 23.8971 23.8971 24.3 23.4 24.3C22.9029 24.3 22.5 23.8971 22.5 23.4V21.6C22.5 21.1029 22.9029 20.7 23.4 20.7Z" fill="var(--fill-0, black)" fill-opacity="0.56"/>
</g>
</svg>
