<svg preserveAspectRatio="none" width="100%" height="100%" overflow="visible" style="display: block;" viewBox="0 0 28.8 28.8" fill="none" xmlns="http://www.w3.org/2000/svg">
<g id="ChatText">
<path id="Vector" d="M24.2996 5.4C24.7769 5.4 25.2354 5.58978 25.573 5.92734C25.9104 6.26485 26.1003 6.72257 26.1003 7.1998V21.6002C26.1003 22.0774 25.9104 22.5352 25.573 22.8727C25.2354 23.2102 24.7769 23.4 24.2996 23.4H9.34448L9.22827 23.441L5.64721 26.4449C5.38504 26.6618 5.06672 26.8 4.72924 26.8434C4.39167 26.8867 4.04852 26.8337 3.73998 26.69C3.43154 26.5464 3.17017 26.318 2.98608 26.0318C2.80198 25.7455 2.70264 25.4122 2.69995 25.0719V7.1998C2.7 6.72249 2.88978 6.26486 3.22729 5.92734C3.5648 5.58983 4.02244 5.40006 4.49975 5.4H24.2996ZM4.49975 25.0582L8.19702 21.9566C8.27983 21.8872 8.37439 21.8333 8.47631 21.7975L8.8933 21.651C8.98904 21.6174 9.0897 21.6002 9.19116 21.6002H24.2996V7.1998H4.49975V25.0582ZM17.9997 15.3004C18.4967 15.3004 18.9 15.7028 18.9001 16.1998C18.9001 16.6969 18.4968 17.1002 17.9997 17.1002H10.7996C10.3027 17.1 9.90014 16.6967 9.90014 16.1998C9.90025 15.703 10.3028 15.3006 10.7996 15.3004H17.9997ZM17.9997 11.6998C18.4968 11.6998 18.9001 12.1031 18.9001 12.6002C18.9 13.0972 18.4967 13.4996 17.9997 13.4996H10.7996C10.3028 13.4994 9.90025 13.097 9.90014 12.6002C9.90014 12.1033 10.3027 11.7 10.7996 11.6998H17.9997Z" fill="var(--fill-0, black)" fill-opacity="0.56"/>
</g>
</svg>
