<svg preserveAspectRatio="none" width="100%" height="100%" overflow="visible" style="display: block;" viewBox="0 0 24 24" fill="none" xmlns="http://www.w3.org/2000/svg">
<g id="Icon Right">
<path id="Vector" d="M19.5093 2.64442C19.7646 2.57057 20.0349 2.56689 20.2925 2.6327C20.5516 2.69897 20.7889 2.83327 20.978 3.02235C21.167 3.21137 21.3014 3.44799 21.3677 3.70692C21.4336 3.96459 21.4289 4.23566 21.355 4.4911L16.436 21.9569C16.4357 21.958 16.4354 21.9598 16.4351 21.9608C16.3533 22.2569 16.1824 22.5207 15.9458 22.7167C15.7084 22.9133 15.4162 23.0319 15.1089 23.0565C14.8015 23.0811 14.4938 23.0108 14.228 22.8544C13.9642 22.699 13.7544 22.4664 13.6265 22.1884L9.83155 14.1679L1.81202 10.3739C1.53402 10.2461 1.30137 10.0361 1.146 9.77235C0.989518 9.50663 0.918319 9.19888 0.942875 8.89149C0.967471 8.58404 1.08692 8.29111 1.2837 8.0536C1.47969 7.8172 1.74358 7.64698 2.03955 7.56532L2.04248 7.56434L19.5093 2.64442ZM2.43799 9.01063L2.44873 9.01552L10.2378 12.7011L14.104 8.83485C14.3968 8.54224 14.8717 8.54233 15.1646 8.83485C15.4574 9.12774 15.4574 9.60348 15.1646 9.89637L11.2983 13.7616L14.9839 21.5507L14.9888 21.5614L14.9907 21.5565L19.9097 4.08973L2.43799 9.01063ZM19.9175 4.08387C19.9185 4.08459 19.9202 4.08553 19.9214 4.08583C19.923 4.08618 19.9247 4.08628 19.9263 4.08583L19.7153 3.3661L19.9175 4.08387Z" fill="var(--fill-0, #8EA1B2)"/>
</g>
</svg>
