<svg preserveAspectRatio="none" width="100%" height="100%" overflow="visible" style="display: block;" viewBox="0 0 20 20" fill="none" xmlns="http://www.w3.org/2000/svg">
<g id="Icon">
<path id="Vector (Stroke)" fill-rule="evenodd" clip-rule="evenodd" d="M17.5156 3.41406C17.8608 3.41406 18.1406 3.69388 18.1406 4.03906V7.78906C18.1406 8.13424 17.8608 8.41406 17.5156 8.41406H13.7656C13.4204 8.41406 13.1406 8.13424 13.1406 7.78906C13.1406 7.44388 13.4204 7.16406 13.7656 7.16406H16.8906V4.03906C16.8906 3.69388 17.1704 3.41406 17.5156 3.41406Z" fill="var(--fill-0, #041B44)"/>
<path id="Vector (Stroke)_2" fill-rule="evenodd" clip-rule="evenodd" d="M10 3.75073C9.1795 3.75073 8.36705 3.91249 7.60912 4.22676C6.85118 4.54103 6.16265 5.00164 5.58289 5.58224C5.33899 5.8265 4.94326 5.82679 4.69901 5.58289C4.45475 5.33899 4.45446 4.94326 4.69836 4.69901C5.39422 4.00213 6.22063 3.44929 7.13034 3.07208C8.04005 2.69488 9.01519 2.50073 10 2.50073C10.9848 2.50073 11.96 2.69488 12.8697 3.07208C13.7792 3.44921 14.6054 4.00191 15.3012 4.69858C15.3014 4.69872 15.3011 4.69844 15.3012 4.69858L17.9569 7.34647C18.2014 7.59019 18.2019 7.98592 17.9582 8.23035C17.7145 8.47479 17.3188 8.47537 17.0743 8.23165L14.4171 5.58224C13.8374 5.00164 13.1488 4.54103 12.3909 4.22676C11.633 3.91249 10.8205 3.75073 10 3.75073Z" fill="var(--fill-0, #041B44)"/>
<path id="Vector (Stroke)_3" fill-rule="evenodd" clip-rule="evenodd" d="M1.85938 12.2109C1.85938 11.8658 2.1392 11.5859 2.48438 11.5859H6.23438C6.57955 11.5859 6.85938 11.8658 6.85938 12.2109C6.85938 12.5561 6.57955 12.8359 6.23438 12.8359H3.10938V15.9609C3.10938 16.3061 2.82955 16.5859 2.48438 16.5859C2.1392 16.5859 1.85938 16.3061 1.85938 15.9609V12.2109Z" fill="var(--fill-0, #041B44)"/>
<path id="Vector (Stroke)_4" fill-rule="evenodd" clip-rule="evenodd" d="M2.04178 11.7696C2.2855 11.5252 2.68123 11.5246 2.92567 11.7683L5.58289 14.4178C6.16265 14.9984 6.85119 15.459 7.60912 15.7732C8.36705 16.0875 9.1795 16.2493 10 16.2493C10.8205 16.2493 11.633 16.0875 12.3909 15.7732C13.1488 15.459 13.8374 14.9984 14.4171 14.4178C14.661 14.1735 15.0567 14.1732 15.301 14.4171C15.5452 14.661 15.5455 15.0567 15.3016 15.301C14.6058 15.9979 13.7794 16.5507 12.8697 16.9279C11.96 17.3051 10.9848 17.4993 10 17.4993C9.01519 17.4993 8.04005 17.3051 7.13034 16.9279C6.22086 16.5508 5.39463 15.9981 4.69889 15.3015C4.69871 15.3013 4.69854 15.3012 4.69836 15.301L2.04308 12.6535C1.79865 12.4098 1.79806 12.0141 2.04178 11.7696Z" fill="var(--fill-0, #041B44)"/>
</g>
</svg>
