<svg preserveAspectRatio="none" width="100%" height="100%" overflow="visible" style="display: block;" viewBox="0 0 28.8 28.8" fill="none" xmlns="http://www.w3.org/2000/svg">
<g id="MoreHorizFilled">
<path id="Vector" d="M7.2 12C5.88 12 4.8 13.08 4.8 14.4C4.8 15.72 5.88 16.8 7.2 16.8C8.52 16.8 9.6 15.72 9.6 14.4C9.6 13.08 8.52 12 7.2 12ZM21.6 12C20.28 12 19.2 13.08 19.2 14.4C19.2 15.72 20.28 16.8 21.6 16.8C22.92 16.8 24 15.72 24 14.4C24 13.08 22.92 12 21.6 12ZM14.4 12C13.08 12 12 13.08 12 14.4C12 15.72 13.08 16.8 14.4 16.8C15.72 16.8 16.8 15.72 16.8 14.4C16.8 13.08 15.72 12 14.4 12Z" fill="var(--fill-0, black)" fill-opacity="0.56"/>
</g>
</svg>
