<svg preserveAspectRatio="none" width="100%" height="100%" overflow="visible" style="display: block;" viewBox="0 0 24 24" fill="none" xmlns="http://www.w3.org/2000/svg">
<g id="Icon">
<path id="Vector" d="M18.2198 4.71978C18.5127 4.42689 18.9874 4.42689 19.2803 4.71978C19.5732 5.01268 19.5732 5.48744 19.2803 5.78033L13.0606 12.0001L19.2803 18.2198C19.5732 18.5127 19.5732 18.9874 19.2803 19.2803C18.9874 19.5732 18.5127 19.5732 18.2198 19.2803L12.0001 13.0606L5.78033 19.2803C5.48744 19.5732 5.01268 19.5732 4.71978 19.2803C4.42689 18.9874 4.42689 18.5127 4.71978 18.2198L10.9395 12.0001L4.71978 5.78033C4.42689 5.48744 4.42689 5.01268 4.71978 4.71978C5.01268 4.42689 5.48744 4.42689 5.78033 4.71978L12.0001 10.9395L18.2198 4.71978Z" fill="var(--fill-0, white)"/>
</g>
</svg>
