<svg preserveAspectRatio="none" width="100%" height="100%" overflow="visible" style="display: block;" viewBox="0 0 24 24" fill="none" xmlns="http://www.w3.org/2000/svg">
<g id="Icon Right">
<path id="Vector (Stroke)" fill-rule="evenodd" clip-rule="evenodd" d="M7.99046 3.11176C8.1713 3.03749 8.36498 2.99952 8.56046 3C8.56098 3 8.56149 3 8.562 3L8.55938 3.75V3H8.56046H19.5C19.8978 3 20.2794 3.15804 20.5607 3.43934C20.842 3.72065 21 4.10218 21 4.5V19.5C21 19.8978 20.842 20.2794 20.5607 20.5607C20.2794 20.842 19.8978 21 19.5 21H4.5C4.10218 21 3.72065 20.842 3.43934 20.5607C3.15804 20.2794 3 19.8978 3 19.5V8.56046C3 8.56098 3 8.56149 3 8.562L3.75 8.55938H4.49063L4.49595 8.5647L4.49727 8.56339L4.5 8.56066V19.5H19.5V4.5H8.56066L8.56339 4.49727L8.5647 4.49595L8.03437 3.96562L8.56339 4.49727C8.56252 4.49814 8.56148 4.49882 8.56034 4.49929C8.56002 4.49942 8.5597 4.49953 8.55938 4.49963C8.55852 4.49987 8.55764 4.5 8.55675 4.5L8.56066 4.5L4.5 8.56066V8.55938C4.50025 8.55852 4.5 8.55764 4.5 8.55675L4.49062 8.55678L3.96562 8.03437L4.48804 8.55679L3.75 8.55938H3V8.56046C2.99952 8.36498 3.03749 8.1713 3.11176 7.99046C3.18623 7.80915 3.29573 7.6443 3.43398 7.50536L3.43529 7.50404L7.50404 3.43529L7.50536 3.43398C7.6443 3.29573 7.80915 3.18623 7.99046 3.11176ZM4.49062 8.55678L4.49323 8.55938H4.49063L4.48804 8.55679L4.49062 8.55678ZM4.5 8.55938C4.49991 8.5597 4.49942 8.56002 4.49929 8.56034C4.49882 8.56148 4.49814 8.56252 4.49727 8.56339L4.49323 8.55938H4.5Z" fill="var(--fill-0, black)" fill-opacity="0.56"/>
<path id="Vector (Stroke)_2" fill-rule="evenodd" clip-rule="evenodd" d="M12 12C10.9645 12 10.125 12.8395 10.125 13.875C10.125 14.9105 10.9645 15.75 12 15.75C13.0355 15.75 13.875 14.9105 13.875 13.875C13.875 12.8395 13.0355 12 12 12ZM8.625 13.875C8.625 12.011 10.136 10.5 12 10.5C13.864 10.5 15.375 12.011 15.375 13.875C15.375 15.739 13.864 17.25 12 17.25C10.136 17.25 8.625 15.739 8.625 13.875Z" fill="var(--fill-0, black)" fill-opacity="0.56"/>
<path id="Vector (Stroke)_3" fill-rule="evenodd" clip-rule="evenodd" d="M15 3C15.4142 3 15.75 3.33579 15.75 3.75V7.5C15.75 7.91421 15.4142 8.25 15 8.25H9C8.58579 8.25 8.25 7.91421 8.25 7.5C8.25 7.08579 8.58579 6.75 9 6.75H14.25V3.75C14.25 3.33579 14.5858 3 15 3Z" fill="var(--fill-0, black)" fill-opacity="0.56"/>
</g>
</svg>
