<svg preserveAspectRatio="none" width="100%" height="100%" overflow="visible" style="display: block;" viewBox="0 0 24 24" fill="none" xmlns="http://www.w3.org/2000/svg">
<g id="Icon" clip-path="url(#clip0_0_4966)">
<path id="Vector" d="M21.4598 12C21.4598 17.4464 16.8572 21.8178 11.3292 21.4367C6.66451 21.1151 2.88524 17.336 2.56335 12.6713C2.1819 7.14317 6.55341 2.54016 12 2.54016C13.645 2.54016 15.1916 2.9607 16.5391 3.69916L18.328 1.80501C16.2977 0.542064 13.8643 -0.13372 11.2633 0.0221037C5.24323 0.382764 0.370923 5.26234 0.020876 11.283C-0.163842 14.4602 0.888272 17.3892 2.74046 19.6334L1.57079 23.4778C1.4928 23.7341 1.71965 23.9795 1.98129 23.922L6.8648 22.8471C8.58471 23.6628 10.5286 24.0832 12.5801 23.9863C18.7484 23.6948 23.7456 18.6561 23.9904 12.4858C24.0841 10.1212 23.4897 7.90353 22.3964 6.01009L20.7739 8.46371C21.2149 9.55647 21.4598 10.7493 21.4598 12Z" fill="var(--fill-0, #04326C)"/>
<path id="Vector_2" d="M22.8291 0.459292L12.0107 11.914L8.3292 8.73318L7.2386 9.82372L5.74574 11.3798L12.0107 17.4586L23.1065 0.678599C23.2251 0.497482 22.9779 0.302037 22.8291 0.459292Z" fill="var(--fill-0, #23AD85)"/>
</g>
<defs>
<clipPath id="clip0_0_4966">
<rect width="24" height="24" fill="white"/>
</clipPath>
</defs>
</svg>
