<svg preserveAspectRatio="none" width="100%" height="100%" overflow="visible" style="display: block;" viewBox="0 0 149.548 149.085" fill="none" xmlns="http://www.w3.org/2000/svg">
<g id="background-stars" opacity="0.18" filter="url(#filter0_f_0_3694)">
<path id="Vector" d="M15.7228 6.94002C15.6679 6.7725 15.5307 6.65285 15.3557 6.62892L11.1599 6.01697L9.28325 2.22565C9.21121 2.07864 9.05682 2.00685 8.89558 2.00001C8.72061 2.00001 8.54221 2.06497 8.4633 2.23248L6.58668 6.01697L2.39086 6.62892C2.21589 6.65627 2.07866 6.77592 2.02377 6.94002C1.96888 7.10411 2.01005 7.2853 2.13699 7.40496L5.17321 10.3587L4.45275 14.5227C4.4253 14.697 4.49392 14.868 4.63458 14.9671C4.77524 15.0662 4.9605 15.0799 5.11488 15.0013L8.87156 13.0321L8.89215 13.0458L12.6214 15.0013C12.6866 15.0355 12.762 15.056 12.8341 15.056C12.9267 15.056 13.0193 15.0286 13.1017 14.9705C13.2423 14.8714 13.3144 14.6902 13.2835 14.5261L12.5699 10.3621L15.6061 7.40838C15.7331 7.28872 15.7742 7.10753 15.7194 6.94344" fill="var(--fill-0, #8EA1B2)"/>
<path id="Vector_2" d="M103.678 6.94C103.623 6.77249 103.486 6.65283 103.311 6.6289L99.1149 6.01696L97.2383 2.22563C97.1662 2.07863 97.0119 2.00684 96.8506 2C96.6756 2 96.4972 2.06496 96.4183 2.23247L94.5417 6.01696L90.3459 6.6289C90.1709 6.65625 90.0337 6.77591 89.9788 6.94C89.9239 7.1041 89.9651 7.28529 90.092 7.40495L93.1282 10.3587L92.4078 14.5227C92.3803 14.697 92.4489 14.8679 92.5896 14.9671C92.7303 15.0662 92.9155 15.0799 93.0699 15.0013L96.8266 13.0321L96.8472 13.0458L100.576 15.0013C100.642 15.0355 100.717 15.056 100.789 15.056C100.882 15.056 100.974 15.0286 101.057 14.9705C101.197 14.8714 101.269 14.6902 101.239 14.5261L100.525 10.3621L103.561 7.40836C103.688 7.28871 103.729 7.10752 103.674 6.94342" fill="var(--fill-0, #8EA1B2)"/>
<path id="Vector_3" d="M103.678 82.5636C103.623 82.3961 103.486 82.2764 103.311 82.2525L99.1149 81.6406L97.2383 77.8492C97.1662 77.7022 97.0119 77.6304 96.8506 77.6236C96.6756 77.6236 96.4972 77.6886 96.4183 77.8561L94.5417 81.6406L90.3459 82.2525C90.1709 82.2799 90.0337 82.3995 89.9788 82.5636C89.9239 82.7277 89.9651 82.9089 90.092 83.0286L93.1282 85.9823L92.4078 90.1463C92.3803 90.3206 92.4489 90.4916 92.5896 90.5907C92.7303 90.6898 92.9155 90.7035 93.0699 90.6249L96.8266 88.6557L96.8472 88.6694L100.576 90.6249C100.642 90.6591 100.717 90.6796 100.789 90.6796C100.882 90.6796 100.974 90.6522 101.057 90.5941C101.197 90.495 101.269 90.3138 101.239 90.1497L100.525 85.9857L103.561 83.032C103.688 82.9123 103.729 82.7311 103.674 82.567" fill="var(--fill-0, #8EA1B2)"/>
<path id="Vector_4" d="M59.8575 6.94C59.8026 6.77249 59.6654 6.65283 59.4904 6.6289L55.2946 6.01696L53.418 2.22563C53.3459 2.07863 53.1915 2.00684 53.0303 2C52.8553 2 52.6769 2.06496 52.598 2.23247L50.7214 6.01696L46.5256 6.6289C46.3506 6.65625 46.2134 6.77591 46.1585 6.94C46.1036 7.1041 46.1448 7.28529 46.2717 7.40495L49.3079 10.3587L48.5875 14.5227C48.56 14.697 48.6286 14.8679 48.7693 14.9671C48.91 15.0662 49.0952 15.0799 49.2496 15.0013L53.0063 13.0321L53.0269 13.0458L56.7561 15.0013C56.8213 15.0355 56.8968 15.056 56.9688 15.056C57.0614 15.056 57.1541 15.0286 57.2364 14.9705C57.3771 14.8714 57.4491 14.6902 57.4182 14.5261L56.7046 10.3621L59.7409 7.40836C59.8678 7.28871 59.909 7.10752 59.8541 6.94342" fill="var(--fill-0, #8EA1B2)"/>
<path id="Vector_5" d="M59.8575 82.5637C59.8026 82.3962 59.6654 82.2766 59.4904 82.2526L55.2946 81.6407L53.418 77.8494C53.3459 77.7024 53.1915 77.6306 53.0303 77.6237C52.8553 77.6237 52.6769 77.6887 52.598 77.8562L50.7214 81.6407L46.5256 82.2526C46.3506 82.28 46.2134 82.3996 46.1585 82.5637C46.1036 82.7278 46.1448 82.909 46.2717 83.0287L49.3079 85.9824L48.5875 90.1464C48.56 90.3207 48.6286 90.4917 48.7693 90.5908C48.91 90.69 49.0952 90.7036 49.2496 90.625L53.0063 88.6558L53.0269 88.6695L56.7561 90.625C56.8213 90.6592 56.8968 90.6797 56.9688 90.6797C57.0614 90.6797 57.1541 90.6523 57.2364 90.5942C57.3771 90.4951 57.4491 90.3139 57.4182 90.1498L56.7046 85.9858L59.7409 83.0321C59.8678 82.9124 59.909 82.7312 59.8541 82.5671" fill="var(--fill-0, #8EA1B2)"/>
<path id="Vector_6" d="M147.527 6.94C147.473 6.77249 147.335 6.65283 147.16 6.6289L142.965 6.01696L141.088 2.22563C141.016 2.07863 140.861 2.00684 140.7 2C140.525 2 140.347 2.06496 140.268 2.23247L138.391 6.01696L134.196 6.6289C134.021 6.65625 133.883 6.77591 133.828 6.94C133.774 7.1041 133.815 7.28529 133.942 7.40495L136.978 10.3587L136.257 14.5227C136.23 14.697 136.299 14.8679 136.439 14.9671C136.58 15.0662 136.765 15.0799 136.92 15.0013L140.676 13.0321L140.697 13.0458L144.426 15.0013C144.491 15.0355 144.567 15.056 144.639 15.056C144.731 15.056 144.824 15.0286 144.906 14.9705C145.047 14.8714 145.119 14.6902 145.088 14.5261L144.375 10.3621L147.411 7.40836C147.538 7.28871 147.579 7.10752 147.524 6.94342" fill="var(--fill-0, #8EA1B2)"/>
<path id="Vector_7" d="M147.527 82.5637C147.473 82.3962 147.335 82.2766 147.16 82.2526L142.965 81.6407L141.088 77.8494C141.016 77.7024 140.861 77.6306 140.7 77.6237C140.525 77.6237 140.347 77.6887 140.268 77.8562L138.391 81.6407L134.196 82.2526C134.021 82.28 133.883 82.3996 133.828 82.5637C133.774 82.7278 133.815 82.909 133.942 83.0287L136.978 85.9824L136.257 90.1464C136.23 90.3207 136.299 90.4917 136.439 90.5908C136.58 90.69 136.765 90.7036 136.92 90.625L140.676 88.6558L140.697 88.6695L144.426 90.625C144.491 90.6592 144.567 90.6797 144.639 90.6797C144.731 90.6797 144.824 90.6523 144.906 90.5942C145.047 90.4951 145.119 90.3139 145.088 90.1498L144.375 85.9858L147.411 83.0321C147.538 82.9124 147.579 82.7312 147.524 82.5671" fill="var(--fill-0, #8EA1B2)"/>
<path id="Vector_8" d="M37.9376 6.94C37.8827 6.77249 37.7455 6.65283 37.5705 6.6289L33.3747 6.01696L31.4981 2.22563C31.426 2.07863 31.2716 2.00684 31.1104 2C30.9354 2 30.757 2.06496 30.6781 2.23247L28.8015 6.01696L24.6057 6.6289C24.4307 6.65625 24.2935 6.77591 24.2386 6.94C24.1837 7.1041 24.2248 7.28529 24.3518 7.40495L27.388 10.3587L26.6675 14.5227C26.6401 14.697 26.7087 14.8679 26.8494 14.9671C26.99 15.0662 27.1753 15.0799 27.3297 15.0013L31.0864 13.0321L31.1069 13.0458L34.8362 15.0013C34.9014 15.0355 34.9768 15.056 35.0489 15.056C35.1415 15.056 35.2341 15.0286 35.3165 14.9705C35.4571 14.8714 35.5292 14.6902 35.4983 14.5261L34.7847 10.3621L37.8209 7.40836C37.9479 7.28871 37.989 7.10752 37.9342 6.94342" fill="var(--fill-0, #8EA1B2)"/>
<path id="Vector_9" d="M125.627 6.94C125.572 6.77249 125.435 6.65283 125.26 6.6289L121.064 6.01696L119.188 2.22563C119.115 2.07863 118.961 2.00684 118.8 2C118.625 2 118.446 2.06496 118.368 2.23247L116.491 6.01696L112.295 6.6289C112.12 6.65625 111.983 6.77591 111.928 6.94C111.873 7.1041 111.914 7.28529 112.041 7.40495L115.077 10.3587L114.357 14.5227C114.33 14.697 114.398 14.8679 114.539 14.9671C114.679 15.0662 114.865 15.0799 115.019 15.0013L118.776 13.0321L118.796 13.0458L122.526 15.0013C122.591 15.0355 122.666 15.056 122.738 15.056C122.831 15.056 122.924 15.0286 123.006 14.9705C123.147 14.8714 123.219 14.6902 123.188 14.5261L122.474 10.3621L125.51 7.40836C125.637 7.28871 125.678 7.10752 125.624 6.94342" fill="var(--fill-0, #8EA1B2)"/>
<path id="Vector_10" d="M125.627 82.5636C125.572 82.3961 125.435 82.2764 125.26 82.2525L121.064 81.6406L119.188 77.8492C119.115 77.7022 118.961 77.6304 118.8 77.6236C118.625 77.6236 118.446 77.6886 118.368 77.8561L116.491 81.6406L112.295 82.2525C112.12 82.2799 111.983 82.3995 111.928 82.5636C111.873 82.7277 111.914 82.9089 112.041 83.0286L115.077 85.9823L114.357 90.1463C114.33 90.3206 114.398 90.4916 114.539 90.5907C114.679 90.6898 114.865 90.7035 115.019 90.6249L118.776 88.6557L118.796 88.6694L122.526 90.6249C122.591 90.6591 122.666 90.6796 122.738 90.6796C122.831 90.6796 122.924 90.6522 123.006 90.5941C123.147 90.495 123.219 90.3138 123.188 90.1497L122.474 85.9857L125.51 83.032C125.637 82.9123 125.678 82.7311 125.624 82.567" fill="var(--fill-0, #8EA1B2)"/>
<path id="Vector_11" d="M81.7677 6.94C81.7128 6.77249 81.5755 6.65283 81.4006 6.6289L77.2048 6.01696L75.3281 2.22563C75.2561 2.07863 75.1017 2.00684 74.9405 2C74.7655 2 74.5871 2.06496 74.5082 2.23247L72.6316 6.01696L68.4357 6.6289C68.2608 6.65625 68.1235 6.77591 68.0686 6.94C68.0138 7.1041 68.0549 7.28529 68.1819 7.40495L71.2181 10.3587L70.4976 14.5227C70.4702 14.697 70.5388 14.8679 70.6795 14.9671C70.8201 15.0662 71.0054 15.0799 71.1598 15.0013L74.9164 13.0321L74.937 13.0458L78.6663 15.0013C78.7314 15.0355 78.8069 15.056 78.879 15.056C78.9716 15.056 79.0642 15.0286 79.1466 14.9705C79.2872 14.8714 79.3593 14.6902 79.3284 14.5261L78.6148 10.3621L81.651 7.40836C81.778 7.28871 81.8191 7.10752 81.7642 6.94342" fill="var(--fill-0, #8EA1B2)"/>
<path id="Vector_12" d="M81.7677 82.5636C81.7128 82.3961 81.5755 82.2764 81.4006 82.2525L77.2048 81.6406L75.3281 77.8492C75.2561 77.7022 75.1017 77.6304 74.9405 77.6236C74.7655 77.6236 74.5871 77.6886 74.5082 77.8561L72.6316 81.6406L68.4357 82.2525C68.2608 82.2799 68.1235 82.3995 68.0686 82.5636C68.0138 82.7277 68.0549 82.9089 68.1819 83.0286L71.2181 85.9823L70.4976 90.1463C70.4702 90.3206 70.5388 90.4916 70.6795 90.5907C70.8201 90.6898 71.0054 90.7035 71.1598 90.6249L74.9164 88.6557L74.937 88.6694L78.6663 90.6249C78.7314 90.6591 78.8069 90.6796 78.879 90.6796C78.9716 90.6796 79.0642 90.6522 79.1466 90.5941C79.2872 90.495 79.3593 90.3138 79.3284 90.1497L78.6148 85.9857L81.651 83.032C81.778 82.9123 81.8191 82.7311 81.7642 82.567" fill="var(--fill-0, #8EA1B2)"/>
<path id="Vector_13" d="M103.678 25.6424C103.623 25.4749 103.486 25.3553 103.311 25.3313L99.1149 24.7194L97.2383 20.9281C97.1662 20.7811 97.0119 20.7093 96.8506 20.7024C96.6756 20.7024 96.4972 20.7674 96.4183 20.9349L94.5417 24.7194L90.3459 25.3313C90.1709 25.3587 90.0337 25.4783 89.9788 25.6424C89.9239 25.8065 89.9651 25.9877 90.092 26.1074L93.1282 29.0611L92.4078 33.2251C92.3803 33.3994 92.4489 33.5704 92.5896 33.6695C92.7303 33.7687 92.9155 33.7823 93.0699 33.7037L96.8266 31.7345L96.8472 31.7482L100.576 33.7037C100.642 33.7379 100.717 33.7584 100.789 33.7584C100.882 33.7584 100.974 33.731 101.057 33.6729C101.197 33.5738 101.269 33.3926 101.239 33.2285L100.525 29.0645L103.561 26.1108C103.688 25.9911 103.729 25.8099 103.674 25.6458" fill="var(--fill-0, #8EA1B2)"/>
<path id="Vector_14" d="M103.678 101.562C103.623 101.394 103.486 101.275 103.311 101.251L99.1149 100.639L97.2383 96.8476C97.1662 96.7006 97.0119 96.6288 96.8506 96.622C96.6756 96.622 96.4972 96.6869 96.4183 96.8544L94.5417 100.639L90.3459 101.251C90.1709 101.278 90.0337 101.398 89.9788 101.562C89.9239 101.726 89.9651 101.907 90.092 102.027L93.1282 104.981L92.4078 109.145C92.3803 109.319 92.4489 109.49 92.5896 109.589C92.7303 109.688 92.9155 109.702 93.0699 109.623L96.8266 107.654L96.8472 107.668L100.576 109.623C100.642 109.657 100.717 109.678 100.789 109.678C100.882 109.678 100.974 109.651 101.057 109.592C101.197 109.493 101.269 109.312 101.239 109.148L100.525 104.984L103.561 102.03C103.688 101.911 103.729 101.729 103.674 101.565" fill="var(--fill-0, #8EA1B2)"/>
<path id="Vector_15" d="M59.8575 25.6427C59.8026 25.4751 59.6654 25.3555 59.4904 25.3316L55.2946 24.7196L53.418 20.9283C53.3459 20.7813 53.1915 20.7095 53.0303 20.7027C52.8553 20.7027 52.6769 20.7676 52.598 20.9351L50.7214 24.7196L46.5256 25.3316C46.3506 25.3589 46.2134 25.4786 46.1585 25.6427C46.1036 25.8068 46.1448 25.9879 46.2717 26.1076L49.3079 29.0613L48.5875 33.2253C48.56 33.3997 48.6286 33.5706 48.7693 33.6697C48.91 33.7689 49.0952 33.7825 49.2496 33.7039L53.0063 31.7348L53.0269 31.7484L56.7561 33.7039C56.8213 33.7381 56.8968 33.7586 56.9688 33.7586C57.0614 33.7586 57.1541 33.7313 57.2364 33.6732C57.3771 33.574 57.4491 33.3928 57.4182 33.2287L56.7046 29.0648L59.7409 26.111C59.8678 25.9914 59.909 25.8102 59.8541 25.6461" fill="var(--fill-0, #8EA1B2)"/>
<path id="Vector_16" d="M59.8575 101.562C59.8026 101.394 59.6654 101.275 59.4904 101.251L55.2946 100.639L53.418 96.8475C53.3459 96.7005 53.1915 96.6287 53.0303 96.6219C52.8553 96.6219 52.6769 96.6868 52.598 96.8543L50.7214 100.639L46.5256 101.251C46.3506 101.278 46.2134 101.398 46.1585 101.562C46.1036 101.726 46.1448 101.907 46.2717 102.027L49.3079 104.981L48.5875 109.145C48.56 109.319 48.6286 109.49 48.7693 109.589C48.91 109.688 49.0952 109.702 49.2496 109.623L53.0063 107.654L53.0269 107.668L56.7561 109.623C56.8213 109.657 56.8968 109.678 56.9688 109.678C57.0614 109.678 57.1541 109.65 57.2364 109.592C57.3771 109.493 57.4491 109.312 57.4182 109.148L56.7046 104.984L59.7409 102.03C59.8678 101.911 59.909 101.729 59.8541 101.565" fill="var(--fill-0, #8EA1B2)"/>
<path id="Vector_17" d="M147.527 25.6427C147.473 25.4751 147.335 25.3555 147.16 25.3316L142.965 24.7196L141.088 20.9283C141.016 20.7813 140.861 20.7095 140.7 20.7027C140.525 20.7027 140.347 20.7676 140.268 20.9351L138.391 24.7196L134.196 25.3316C134.021 25.3589 133.883 25.4786 133.828 25.6427C133.774 25.8068 133.815 25.9879 133.942 26.1076L136.978 29.0613L136.257 33.2253C136.23 33.3997 136.299 33.5706 136.439 33.6697C136.58 33.7689 136.765 33.7825 136.92 33.7039L140.676 31.7348L140.697 31.7484L144.426 33.7039C144.491 33.7381 144.567 33.7586 144.639 33.7586C144.731 33.7586 144.824 33.7313 144.906 33.6732C145.047 33.574 145.119 33.3928 145.088 33.2287L144.375 29.0648L147.411 26.111C147.538 25.9914 147.579 25.8102 147.524 25.6461" fill="var(--fill-0, #8EA1B2)"/>
<path id="Vector_18" d="M147.527 101.562C147.473 101.394 147.335 101.275 147.16 101.251L142.965 100.639L141.088 96.8475C141.016 96.7005 140.861 96.6287 140.7 96.6219C140.525 96.6219 140.347 96.6868 140.268 96.8543L138.391 100.639L134.196 101.251C134.021 101.278 133.883 101.398 133.828 101.562C133.774 101.726 133.815 101.907 133.942 102.027L136.978 104.981L136.257 109.145C136.23 109.319 136.299 109.49 136.439 109.589C136.58 109.688 136.765 109.702 136.92 109.623L140.676 107.654L140.697 107.668L144.426 109.623C144.491 109.657 144.567 109.678 144.639 109.678C144.731 109.678 144.824 109.65 144.906 109.592C145.047 109.493 145.119 109.312 145.088 109.148L144.375 104.984L147.411 102.03C147.538 101.911 147.579 101.729 147.524 101.565" fill="var(--fill-0, #8EA1B2)"/>
<path id="Vector_19" d="M37.9376 25.6427C37.8827 25.4751 37.7455 25.3555 37.5705 25.3316L33.3747 24.7196L31.4981 20.9283C31.426 20.7813 31.2716 20.7095 31.1104 20.7027C30.9354 20.7027 30.757 20.7676 30.6781 20.9351L28.8015 24.7196L24.6057 25.3316C24.4307 25.3589 24.2935 25.4786 24.2386 25.6427C24.1837 25.8068 24.2248 25.9879 24.3518 26.1076L27.388 29.0613L26.6675 33.2253C26.6401 33.3997 26.7087 33.5706 26.8494 33.6697C26.99 33.7689 27.1753 33.7825 27.3297 33.7039L31.0864 31.7348L31.1069 31.7484L34.8362 33.7039C34.9014 33.7381 34.9768 33.7586 35.0489 33.7586C35.1415 33.7586 35.2341 33.7313 35.3165 33.6732C35.4571 33.574 35.5292 33.3928 35.4983 33.2287L34.7847 29.0648L37.8209 26.111C37.9479 25.9914 37.989 25.8102 37.9342 25.6461" fill="var(--fill-0, #8EA1B2)"/>
<path id="Vector_20" d="M125.627 25.6424C125.572 25.4749 125.435 25.3553 125.26 25.3313L121.064 24.7194L119.188 20.9281C119.115 20.7811 118.961 20.7093 118.8 20.7024C118.625 20.7024 118.446 20.7674 118.368 20.9349L116.491 24.7194L112.295 25.3313C112.12 25.3587 111.983 25.4783 111.928 25.6424C111.873 25.8065 111.914 25.9877 112.041 26.1074L115.077 29.0611L114.357 33.2251C114.33 33.3994 114.398 33.5704 114.539 33.6695C114.679 33.7687 114.865 33.7823 115.019 33.7037L118.776 31.7345L118.796 31.7482L122.526 33.7037C122.591 33.7379 122.666 33.7584 122.738 33.7584C122.831 33.7584 122.924 33.731 123.006 33.6729C123.147 33.5738 123.219 33.3926 123.188 33.2285L122.474 29.0645L125.51 26.1108C125.637 25.9911 125.678 25.8099 125.624 25.6458" fill="var(--fill-0, #8EA1B2)"/>
<path id="Vector_21" d="M125.627 101.562C125.572 101.394 125.435 101.275 125.26 101.251L121.064 100.639L119.188 96.8476C119.115 96.7006 118.961 96.6288 118.8 96.622C118.625 96.622 118.446 96.6869 118.368 96.8544L116.491 100.639L112.295 101.251C112.12 101.278 111.983 101.398 111.928 101.562C111.873 101.726 111.914 101.907 112.041 102.027L115.077 104.981L114.357 109.145C114.33 109.319 114.398 109.49 114.539 109.589C114.679 109.688 114.865 109.702 115.019 109.623L118.776 107.654L118.796 107.668L122.526 109.623C122.591 109.657 122.666 109.678 122.738 109.678C122.831 109.678 122.924 109.651 123.006 109.592C123.147 109.493 123.219 109.312 123.188 109.148L122.474 104.984L125.51 102.03C125.637 101.911 125.678 101.729 125.624 101.565" fill="var(--fill-0, #8EA1B2)"/>
<path id="Vector_22" d="M81.7677 25.6424C81.7128 25.4749 81.5755 25.3553 81.4006 25.3313L77.2048 24.7194L75.3281 20.9281C75.2561 20.7811 75.1017 20.7093 74.9405 20.7024C74.7655 20.7024 74.5871 20.7674 74.5082 20.9349L72.6316 24.7194L68.4357 25.3313C68.2608 25.3587 68.1235 25.4783 68.0686 25.6424C68.0138 25.8065 68.0549 25.9877 68.1819 26.1074L71.2181 29.0611L70.4976 33.2251C70.4702 33.3994 70.5388 33.5704 70.6795 33.6695C70.8201 33.7687 71.0054 33.7823 71.1598 33.7037L74.9164 31.7345L74.937 31.7482L78.6663 33.7037C78.7314 33.7379 78.8069 33.7584 78.879 33.7584C78.9716 33.7584 79.0642 33.731 79.1466 33.6729C79.2872 33.5738 79.3593 33.3926 79.3284 33.2285L78.6148 29.0645L81.651 26.1108C81.778 25.9911 81.8191 25.8099 81.7642 25.6458" fill="var(--fill-0, #8EA1B2)"/>
<path id="Vector_23" d="M81.7677 101.562C81.7128 101.394 81.5755 101.275 81.4006 101.251L77.2048 100.639L75.3281 96.8476C75.2561 96.7006 75.1017 96.6288 74.9405 96.622C74.7655 96.622 74.5871 96.6869 74.5082 96.8544L72.6316 100.639L68.4357 101.251C68.2608 101.278 68.1235 101.398 68.0686 101.562C68.0138 101.726 68.0549 101.907 68.1819 102.027L71.2181 104.981L70.4976 109.145C70.4702 109.319 70.5388 109.49 70.6795 109.589C70.8201 109.688 71.0054 109.702 71.1598 109.623L74.9164 107.654L74.937 107.668L78.6663 109.623C78.7314 109.657 78.8069 109.678 78.879 109.678C78.9716 109.678 79.0642 109.651 79.1466 109.592C79.2872 109.493 79.3593 109.312 79.3284 109.148L78.6148 104.984L81.651 102.03C81.778 101.911 81.8191 101.729 81.7642 101.565" fill="var(--fill-0, #8EA1B2)"/>
<path id="Vector_24" d="M103.678 44.613C103.623 44.4455 103.486 44.3259 103.311 44.3019L99.1149 43.69L97.2383 39.8987C97.1662 39.7517 97.0119 39.6799 96.8506 39.673C96.6756 39.673 96.4972 39.738 96.4183 39.9055L94.5417 43.69L90.3459 44.3019C90.1709 44.3293 90.0337 44.4489 89.9788 44.613C89.9239 44.7771 89.9651 44.9583 90.092 45.078L93.1282 48.0317L92.4078 52.1957C92.3803 52.37 92.4489 52.541 92.5896 52.6401C92.7303 52.7392 92.9155 52.7529 93.0699 52.6743L96.8266 50.7051L96.8472 50.7188L100.576 52.6743C100.642 52.7085 100.717 52.729 100.789 52.729C100.882 52.729 100.974 52.7016 101.057 52.6435C101.197 52.5444 101.269 52.3632 101.239 52.1991L100.525 48.0351L103.561 45.0814C103.688 44.9617 103.729 44.7805 103.674 44.6164" fill="var(--fill-0, #8EA1B2)"/>
<path id="Vector_25" d="M103.678 120.542C103.623 120.374 103.486 120.254 103.311 120.23L99.1149 119.618L97.2383 115.827C97.1662 115.68 97.0119 115.608 96.8506 115.602C96.6756 115.602 96.4972 115.666 96.4183 115.834L94.5417 119.618L90.3459 120.23C90.1709 120.258 90.0337 120.377 89.9788 120.542C89.9239 120.706 89.9651 120.887 90.092 121.006L93.1282 123.96L92.4078 128.124C92.3803 128.299 92.4489 128.469 92.5896 128.569C92.7303 128.668 92.9155 128.681 93.0699 128.603L96.8266 126.634L96.8472 126.647L100.576 128.603C100.642 128.637 100.717 128.657 100.789 128.657C100.882 128.657 100.974 128.63 101.057 128.572C101.197 128.473 101.269 128.292 101.239 128.128L100.525 123.964L103.561 121.01C103.688 120.89 103.729 120.709 103.674 120.545" fill="var(--fill-0, #8EA1B2)"/>
<path id="Vector_26" d="M59.8575 44.6132C59.8026 44.4457 59.6654 44.3261 59.4904 44.3021L55.2946 43.6902L53.418 39.8989C53.3459 39.7519 53.1915 39.6801 53.0303 39.6732C52.8553 39.6732 52.6769 39.7382 52.598 39.9057L50.7214 43.6902L46.5256 44.3021C46.3506 44.3295 46.2134 44.4492 46.1585 44.6132C46.1036 44.7773 46.1448 44.9585 46.2717 45.0782L49.3079 48.0319L48.5875 52.1959C48.56 52.3703 48.6286 52.5412 48.7693 52.6403C48.91 52.7395 49.0952 52.7531 49.2496 52.6745L53.0063 50.7054L53.0269 50.719L56.7561 52.6745C56.8213 52.7087 56.8968 52.7292 56.9688 52.7292C57.0614 52.7292 57.1541 52.7019 57.2364 52.6437C57.3771 52.5446 57.4491 52.3634 57.4182 52.1993L56.7046 48.0354L59.7409 45.0816C59.8678 44.962 59.909 44.7808 59.8541 44.6167" fill="var(--fill-0, #8EA1B2)"/>
<path id="Vector_27" d="M59.8575 120.542C59.8026 120.374 59.6654 120.255 59.4904 120.231L55.2946 119.619L53.418 115.827C53.3459 115.68 53.1915 115.609 53.0303 115.602C52.8553 115.602 52.6769 115.667 52.598 115.834L50.7214 119.619L46.5256 120.231C46.3506 120.258 46.2134 120.378 46.1585 120.542C46.1036 120.706 46.1448 120.887 46.2717 121.007L49.3079 123.96L48.5875 128.124C48.56 128.299 48.6286 128.47 48.7693 128.569C48.91 128.668 49.0952 128.682 49.2496 128.603L53.0063 126.634L53.0269 126.648L56.7561 128.603C56.8213 128.637 56.8968 128.658 56.9688 128.658C57.0614 128.658 57.1541 128.63 57.2364 128.572C57.3771 128.473 57.4491 128.292 57.4182 128.128L56.7046 123.964L59.7409 121.01C59.8678 120.89 59.909 120.709 59.8541 120.545" fill="var(--fill-0, #8EA1B2)"/>
<path id="Vector_28" d="M147.527 44.6132C147.473 44.4457 147.335 44.3261 147.16 44.3021L142.965 43.6902L141.088 39.8989C141.016 39.7519 140.861 39.6801 140.7 39.6732C140.525 39.6732 140.347 39.7382 140.268 39.9057L138.391 43.6902L134.196 44.3021C134.021 44.3295 133.883 44.4492 133.828 44.6132C133.774 44.7773 133.815 44.9585 133.942 45.0782L136.978 48.0319L136.257 52.1959C136.23 52.3703 136.299 52.5412 136.439 52.6403C136.58 52.7395 136.765 52.7531 136.92 52.6745L140.676 50.7054L140.697 50.719L144.426 52.6745C144.491 52.7087 144.567 52.7292 144.639 52.7292C144.731 52.7292 144.824 52.7019 144.906 52.6437C145.047 52.5446 145.119 52.3634 145.088 52.1993L144.375 48.0354L147.411 45.0816C147.538 44.962 147.579 44.7808 147.524 44.6167" fill="var(--fill-0, #8EA1B2)"/>
<path id="Vector_29" d="M147.527 120.542C147.473 120.374 147.335 120.255 147.16 120.231L142.965 119.619L141.088 115.827C141.016 115.68 140.861 115.609 140.7 115.602C140.525 115.602 140.347 115.667 140.268 115.834L138.391 119.619L134.196 120.231C134.021 120.258 133.883 120.378 133.828 120.542C133.774 120.706 133.815 120.887 133.942 121.007L136.978 123.96L136.257 128.124C136.23 128.299 136.299 128.47 136.439 128.569C136.58 128.668 136.765 128.682 136.92 128.603L140.676 126.634L140.697 126.648L144.426 128.603C144.491 128.637 144.567 128.658 144.639 128.658C144.731 128.658 144.824 128.63 144.906 128.572C145.047 128.473 145.119 128.292 145.088 128.128L144.375 123.964L147.411 121.01C147.538 120.89 147.579 120.709 147.524 120.545" fill="var(--fill-0, #8EA1B2)"/>
<path id="Vector_30" d="M37.9376 120.542C37.8827 120.374 37.7455 120.255 37.5705 120.231L33.3747 119.619L31.4981 115.827C31.426 115.68 31.2716 115.609 31.1104 115.602C30.9354 115.602 30.757 115.667 30.6781 115.834L28.8015 119.619L24.6057 120.231C24.4307 120.258 24.2935 120.378 24.2386 120.542C24.1837 120.706 24.2248 120.887 24.3518 121.007L27.388 123.96L26.6675 128.124C26.6401 128.299 26.7087 128.47 26.8494 128.569C26.99 128.668 27.1753 128.682 27.3297 128.603L31.0864 126.634L31.1069 126.648L34.8362 128.603C34.9014 128.637 34.9768 128.658 35.0489 128.658C35.1415 128.658 35.2341 128.63 35.3165 128.572C35.4571 128.473 35.5292 128.292 35.4983 128.128L34.7847 123.964L37.8209 121.01C37.9479 120.89 37.989 120.709 37.9342 120.545" fill="var(--fill-0, #8EA1B2)"/>
<path id="Vector_31" d="M125.627 44.613C125.572 44.4455 125.435 44.3259 125.26 44.3019L121.064 43.69L119.188 39.8987C119.115 39.7517 118.961 39.6799 118.8 39.673C118.625 39.673 118.446 39.738 118.368 39.9055L116.491 43.69L112.295 44.3019C112.12 44.3293 111.983 44.4489 111.928 44.613C111.873 44.7771 111.914 44.9583 112.041 45.078L115.077 48.0317L114.357 52.1957C114.33 52.37 114.398 52.541 114.539 52.6401C114.679 52.7392 114.865 52.7529 115.019 52.6743L118.776 50.7051L118.796 50.7188L122.526 52.6743C122.591 52.7085 122.666 52.729 122.738 52.729C122.831 52.729 122.924 52.7016 123.006 52.6435C123.147 52.5444 123.219 52.3632 123.188 52.1991L122.474 48.0351L125.51 45.0814C125.637 44.9617 125.678 44.7805 125.624 44.6164" fill="var(--fill-0, #8EA1B2)"/>
<path id="Vector_32" d="M125.627 120.542C125.572 120.374 125.435 120.254 125.26 120.23L121.064 119.618L119.188 115.827C119.115 115.68 118.961 115.608 118.8 115.602C118.625 115.602 118.446 115.666 118.368 115.834L116.491 119.618L112.295 120.23C112.12 120.258 111.983 120.377 111.928 120.542C111.873 120.706 111.914 120.887 112.041 121.006L115.077 123.96L114.357 128.124C114.33 128.299 114.398 128.469 114.539 128.569C114.679 128.668 114.865 128.681 115.019 128.603L118.776 126.634L118.796 126.647L122.526 128.603C122.591 128.637 122.666 128.657 122.738 128.657C122.831 128.657 122.924 128.63 123.006 128.572C123.147 128.473 123.219 128.292 123.188 128.128L122.474 123.964L125.51 121.01C125.637 120.89 125.678 120.709 125.624 120.545" fill="var(--fill-0, #8EA1B2)"/>
<path id="Vector_33" d="M81.7677 44.613C81.7128 44.4455 81.5755 44.3259 81.4006 44.3019L77.2048 43.69L75.3281 39.8987C75.2561 39.7517 75.1017 39.6799 74.9405 39.673C74.7655 39.673 74.5871 39.738 74.5082 39.9055L72.6316 43.69L68.4357 44.3019C68.2608 44.3293 68.1235 44.4489 68.0686 44.613C68.0138 44.7771 68.0549 44.9583 68.1819 45.078L71.2181 48.0317L70.4976 52.1957C70.4702 52.37 70.5388 52.541 70.6795 52.6401C70.8201 52.7392 71.0054 52.7529 71.1598 52.6743L74.9164 50.7051L74.937 50.7188L78.6663 52.6743C78.7314 52.7085 78.8069 52.729 78.879 52.729C78.9716 52.729 79.0642 52.7016 79.1466 52.6435C79.2872 52.5444 79.3593 52.3632 79.3284 52.1991L78.6148 48.0351L81.651 45.0814C81.778 44.9617 81.8191 44.7805 81.7642 44.6164" fill="var(--fill-0, #8EA1B2)"/>
<path id="Vector_34" d="M81.7677 120.542C81.7128 120.374 81.5755 120.254 81.4006 120.23L77.2048 119.618L75.3281 115.827C75.2561 115.68 75.1017 115.608 74.9405 115.602C74.7655 115.602 74.5871 115.666 74.5082 115.834L72.6316 119.618L68.4357 120.23C68.2608 120.258 68.1235 120.377 68.0686 120.542C68.0138 120.706 68.0549 120.887 68.1819 121.006L71.2181 123.96L70.4976 128.124C70.4702 128.299 70.5388 128.469 70.6795 128.569C70.8201 128.668 71.0054 128.681 71.1598 128.603L74.9164 126.634L74.937 126.647L78.6663 128.603C78.7314 128.637 78.8069 128.657 78.879 128.657C78.9716 128.657 79.0642 128.63 79.1466 128.572C79.2872 128.473 79.3593 128.292 79.3284 128.128L78.6148 123.964L81.651 121.01C81.778 120.89 81.8191 120.709 81.7642 120.545" fill="var(--fill-0, #8EA1B2)"/>
<path id="Vector_35" d="M16.0274 138.969C15.9725 138.802 15.8353 138.682 15.6603 138.658L11.4645 138.046L9.58789 134.255C9.51585 134.108 9.36146 134.036 9.20022 134.029C9.02525 134.029 8.84685 134.094 8.76794 134.262L6.89132 138.046L2.6955 138.658C2.52053 138.686 2.3833 138.805 2.32841 138.969C2.27352 139.134 2.31469 139.315 2.44163 139.434L5.47785 142.388L4.75739 146.552C4.72994 146.727 4.79856 146.897 4.93922 146.997C5.07988 147.096 5.26514 147.109 5.41952 147.031L9.1762 145.062L9.19679 145.075L12.926 147.031C12.9912 147.065 13.0667 147.085 13.1387 147.085C13.2314 147.085 13.324 147.058 13.4063 147C13.547 146.901 13.619 146.72 13.5882 146.556L12.8746 142.392L15.9108 139.438C16.0377 139.318 16.0789 139.137 16.024 138.973" fill="var(--fill-0, #8EA1B2)"/>
<path id="Vector_36" d="M103.678 63.593C103.623 63.4255 103.486 63.3058 103.311 63.2819L99.1149 62.67L97.2383 58.8786C97.1662 58.7316 97.0119 58.6599 96.8506 58.653C96.6756 58.653 96.4972 58.718 96.4183 58.8855L94.5417 62.67L90.3459 63.2819C90.1709 63.3093 90.0337 63.4289 89.9788 63.593C89.9239 63.7571 89.9651 63.9383 90.092 64.058L93.1282 67.0117L92.4078 71.1757C92.3803 71.35 92.4489 71.521 92.5896 71.6201C92.7303 71.7192 92.9155 71.7329 93.0699 71.6543L96.8266 69.6851L96.8472 69.6988L100.576 71.6543C100.642 71.6885 100.717 71.709 100.789 71.709C100.882 71.709 100.974 71.6816 101.057 71.6235C101.197 71.5244 101.269 71.3432 101.239 71.1791L100.525 67.0151L103.561 64.0614C103.688 63.9417 103.729 63.7605 103.674 63.5964" fill="var(--fill-0, #8EA1B2)"/>
<path id="Vector_37" d="M103.678 138.969C103.623 138.802 103.486 138.682 103.311 138.658L99.1149 138.046L97.2383 134.255C97.1662 134.108 97.0119 134.036 96.8506 134.029C96.6756 134.029 96.4972 134.094 96.4183 134.262L94.5417 138.046L90.3459 138.658C90.1709 138.686 90.0337 138.805 89.9788 138.969C89.9239 139.134 89.9651 139.315 90.092 139.434L93.1282 142.388L92.4078 146.552C92.3803 146.727 92.4489 146.897 92.5896 146.997C92.7303 147.096 92.9155 147.109 93.0699 147.031L96.8266 145.062L96.8472 145.075L100.576 147.031C100.642 147.065 100.717 147.085 100.789 147.085C100.882 147.085 100.974 147.058 101.057 147C101.197 146.901 101.269 146.72 101.239 146.556L100.525 142.392L103.561 139.438C103.688 139.318 103.729 139.137 103.674 138.973" fill="var(--fill-0, #8EA1B2)"/>
<path id="Vector_38" d="M59.8575 63.5931C59.8026 63.4256 59.6654 63.306 59.4904 63.282L55.2946 62.6701L53.418 58.8788C53.3459 58.7318 53.1915 58.66 53.0303 58.6531C52.8553 58.6531 52.6769 58.7181 52.598 58.8856L50.7214 62.6701L46.5256 63.282C46.3506 63.3094 46.2134 63.429 46.1585 63.5931C46.1036 63.7572 46.1448 63.9384 46.2717 64.0581L49.3079 67.0118L48.5875 71.1758C48.56 71.3501 48.6286 71.5211 48.7693 71.6202C48.91 71.7194 49.0952 71.733 49.2496 71.6544L53.0063 69.6852L53.0269 69.6989L56.7561 71.6544C56.8213 71.6886 56.8968 71.7091 56.9688 71.7091C57.0614 71.7091 57.1541 71.6817 57.2364 71.6236C57.3771 71.5245 57.4491 71.3433 57.4182 71.1792L56.7046 67.0152L59.7409 64.0615C59.8678 63.9418 59.909 63.7606 59.8541 63.5966" fill="var(--fill-0, #8EA1B2)"/>
<path id="Vector_39" d="M59.8575 138.969C59.8026 138.802 59.6654 138.682 59.4904 138.658L55.2946 138.046L53.418 134.255C53.3459 134.108 53.1915 134.036 53.0303 134.029C52.8553 134.029 52.6769 134.094 52.598 134.262L50.7214 138.046L46.5256 138.658C46.3506 138.686 46.2134 138.805 46.1585 138.969C46.1036 139.134 46.1448 139.315 46.2717 139.434L49.3079 142.388L48.5875 146.552C48.56 146.727 48.6286 146.897 48.7693 146.997C48.91 147.096 49.0952 147.109 49.2496 147.031L53.0063 145.062L53.0269 145.075L56.7561 147.031C56.8213 147.065 56.8968 147.085 56.9688 147.085C57.0614 147.085 57.1541 147.058 57.2364 147C57.3771 146.901 57.4491 146.72 57.4182 146.556L56.7046 142.392L59.7409 139.438C59.8678 139.318 59.909 139.137 59.8541 138.973" fill="var(--fill-0, #8EA1B2)"/>
<path id="Vector_40" d="M147.527 63.5931C147.473 63.4256 147.335 63.306 147.16 63.282L142.965 62.6701L141.088 58.8788C141.016 58.7318 140.861 58.66 140.7 58.6531C140.525 58.6531 140.347 58.7181 140.268 58.8856L138.391 62.6701L134.196 63.282C134.021 63.3094 133.883 63.429 133.828 63.5931C133.774 63.7572 133.815 63.9384 133.942 64.0581L136.978 67.0118L136.257 71.1758C136.23 71.3501 136.299 71.5211 136.439 71.6202C136.58 71.7194 136.765 71.733 136.92 71.6544L140.676 69.6852L140.697 69.6989L144.426 71.6544C144.491 71.6886 144.567 71.7091 144.639 71.7091C144.731 71.7091 144.824 71.6817 144.906 71.6236C145.047 71.5245 145.119 71.3433 145.088 71.1792L144.375 67.0152L147.411 64.0615C147.538 63.9418 147.579 63.7606 147.524 63.5966" fill="var(--fill-0, #8EA1B2)"/>
<path id="Vector_41" d="M147.527 138.969C147.473 138.802 147.335 138.682 147.16 138.658L142.965 138.046L141.088 134.255C141.016 134.108 140.861 134.036 140.7 134.029C140.525 134.029 140.347 134.094 140.268 134.262L138.391 138.046L134.196 138.658C134.021 138.686 133.883 138.805 133.828 138.969C133.774 139.134 133.815 139.315 133.942 139.434L136.978 142.388L136.257 146.552C136.23 146.727 136.299 146.897 136.439 146.997C136.58 147.096 136.765 147.109 136.92 147.031L140.676 145.062L140.697 145.075L144.426 147.031C144.491 147.065 144.567 147.085 144.639 147.085C144.731 147.085 144.824 147.058 144.906 147C145.047 146.901 145.119 146.72 145.088 146.556L144.375 142.392L147.411 139.438C147.538 139.318 147.579 139.137 147.524 138.973" fill="var(--fill-0, #8EA1B2)"/>
<path id="Vector_42" d="M37.9376 138.969C37.8827 138.802 37.7455 138.682 37.5705 138.658L33.3747 138.046L31.4981 134.255C31.426 134.108 31.2716 134.036 31.1104 134.029C30.9354 134.029 30.757 134.094 30.6781 134.262L28.8015 138.046L24.6057 138.658C24.4307 138.686 24.2935 138.805 24.2386 138.969C24.1837 139.134 24.2248 139.315 24.3518 139.434L27.388 142.388L26.6675 146.552C26.6401 146.727 26.7087 146.897 26.8494 146.997C26.99 147.096 27.1753 147.109 27.3297 147.031L31.0864 145.062L31.1069 145.075L34.8362 147.031C34.9014 147.065 34.9768 147.085 35.0489 147.085C35.1415 147.085 35.2341 147.058 35.3165 147C35.4571 146.901 35.5292 146.72 35.4983 146.556L34.7847 142.392L37.8209 139.438C37.9479 139.318 37.989 139.137 37.9342 138.973" fill="var(--fill-0, #8EA1B2)"/>
<path id="Vector_43" d="M125.627 63.593C125.572 63.4255 125.435 63.3058 125.26 63.2819L121.064 62.67L119.188 58.8786C119.115 58.7316 118.961 58.6599 118.8 58.653C118.625 58.653 118.446 58.718 118.368 58.8855L116.491 62.67L112.295 63.2819C112.12 63.3093 111.983 63.4289 111.928 63.593C111.873 63.7571 111.914 63.9383 112.041 64.058L115.077 67.0117L114.357 71.1757C114.33 71.35 114.398 71.521 114.539 71.6201C114.679 71.7192 114.865 71.7329 115.019 71.6543L118.776 69.6851L118.796 69.6988L122.526 71.6543C122.591 71.6885 122.666 71.709 122.738 71.709C122.831 71.709 122.924 71.6816 123.006 71.6235C123.147 71.5244 123.219 71.3432 123.188 71.1791L122.474 67.0151L125.51 64.0614C125.637 63.9417 125.678 63.7605 125.624 63.5964" fill="var(--fill-0, #8EA1B2)"/>
<path id="Vector_44" d="M125.627 138.969C125.572 138.802 125.435 138.682 125.26 138.658L121.064 138.046L119.188 134.255C119.115 134.108 118.961 134.036 118.8 134.029C118.625 134.029 118.446 134.094 118.368 134.262L116.491 138.046L112.295 138.658C112.12 138.686 111.983 138.805 111.928 138.969C111.873 139.134 111.914 139.315 112.041 139.434L115.077 142.388L114.357 146.552C114.33 146.727 114.398 146.897 114.539 146.997C114.679 147.096 114.865 147.109 115.019 147.031L118.776 145.062L118.796 145.075L122.526 147.031C122.591 147.065 122.666 147.085 122.738 147.085C122.831 147.085 122.924 147.058 123.006 147C123.147 146.901 123.219 146.72 123.188 146.556L122.474 142.392L125.51 139.438C125.637 139.318 125.678 139.137 125.624 138.973" fill="var(--fill-0, #8EA1B2)"/>
<path id="Vector_45" d="M81.7677 63.593C81.7128 63.4255 81.5755 63.3058 81.4006 63.2819L77.2048 62.67L75.3281 58.8786C75.2561 58.7316 75.1017 58.6599 74.9405 58.653C74.7655 58.653 74.5871 58.718 74.5082 58.8855L72.6316 62.67L68.4357 63.2819C68.2608 63.3093 68.1235 63.4289 68.0686 63.593C68.0138 63.7571 68.0549 63.9383 68.1819 64.058L71.2181 67.0117L70.4976 71.1757C70.4702 71.35 70.5388 71.521 70.6795 71.6201C70.8201 71.7192 71.0054 71.7329 71.1598 71.6543L74.9164 69.6851L74.937 69.6988L78.6663 71.6543C78.7314 71.6885 78.8069 71.709 78.879 71.709C78.9716 71.709 79.0642 71.6816 79.1466 71.6235C79.2872 71.5244 79.3593 71.3432 79.3284 71.1791L78.6148 67.0151L81.651 64.0614C81.778 63.9417 81.8191 63.7605 81.7642 63.5964" fill="var(--fill-0, #8EA1B2)"/>
<path id="Vector_46" d="M81.7677 138.969C81.7128 138.802 81.5755 138.682 81.4006 138.658L77.2048 138.046L75.3281 134.255C75.2561 134.108 75.1017 134.036 74.9405 134.029C74.7655 134.029 74.5871 134.094 74.5082 134.262L72.6316 138.046L68.4357 138.658C68.2608 138.686 68.1235 138.805 68.0686 138.969C68.0138 139.134 68.0549 139.315 68.1819 139.434L71.2181 142.388L70.4976 146.552C70.4702 146.727 70.5388 146.897 70.6795 146.997C70.8201 147.096 71.0054 147.109 71.1598 147.031L74.9164 145.062L74.937 145.075L78.6663 147.031C78.7314 147.065 78.8069 147.085 78.879 147.085C78.9716 147.085 79.0642 147.058 79.1466 147C79.2872 146.901 79.3593 146.72 79.3284 146.556L78.6148 142.392L81.651 139.438C81.778 139.318 81.8191 139.137 81.7642 138.973" fill="var(--fill-0, #8EA1B2)"/>
</g>
<defs>
<filter id="filter0_f_0_3694" x="-2.11555e-09" y="0" width="149.548" height="149.085" filterUnits="userSpaceOnUse" color-interpolation-filters="sRGB">
<feFlood flood-opacity="0" result="BackgroundImageFix"/>
<feBlend mode="normal" in="SourceGraphic" in2="BackgroundImageFix" result="shape"/>
<feGaussianBlur stdDeviation="1" result="effect1_foregroundBlur_0_3694"/>
</filter>
</defs>
</svg>
