<svg preserveAspectRatio="none" width="100%" height="100%" overflow="visible" style="display: block;" viewBox="0 0 13.3333 13.3333" fill="none" xmlns="http://www.w3.org/2000/svg">
<g id="Icon" clip-path="url(#clip0_0_4081)">
<path id="Vector" d="M11.9221 6.66665C11.9221 9.69244 9.36508 12.121 6.29403 11.9093C3.7025 11.7306 1.60291 9.63111 1.42409 7.0396C1.21216 3.96843 3.64078 1.4112 6.66664 1.4112C7.58057 1.4112 8.43975 1.64483 9.18839 2.05509L10.1822 1.00278C9.05429 0.301147 7.7024 -0.0742892 6.25739 0.0122798C2.91291 0.212647 0.206068 2.92352 0.0115978 6.26835C-0.0910235 8.03343 0.493484 9.66065 1.52248 10.9074L0.87266 13.0432C0.829335 13.1856 0.95536 13.322 1.10072 13.29L3.81378 12.6928C4.76929 13.146 5.84921 13.3796 6.98893 13.3257C10.4158 13.1638 13.192 10.3645 13.328 6.93656C13.3801 5.6229 13.0499 4.39085 12.4425 3.33894L11.5411 4.70206C11.786 5.30915 11.9221 5.97183 11.9221 6.66665Z" fill="var(--fill-0, #041B44)"/>
<path id="Vector_2" d="M12.6828 0.255162L6.67262 6.61891L4.62733 4.85176L4.02144 5.45762L3.19208 6.32211L6.67262 9.69924L12.8369 0.376999C12.9029 0.276379 12.7655 0.167798 12.6828 0.255162Z" fill="var(--fill-0, #43B6A3)"/>
</g>
<defs>
<clipPath id="clip0_0_4081">
<rect width="13.3333" height="13.3333" fill="white"/>
</clipPath>
</defs>
</svg>
