<svg preserveAspectRatio="none" width="100%" height="100%" overflow="visible" style="display: block;" viewBox="0 0 16 16" fill="none" xmlns="http://www.w3.org/2000/svg">
<g id="ArrowBendDownRight" opacity="0.7">
<path id="Vector (Stroke)" fill-rule="evenodd" clip-rule="evenodd" d="M10.6464 6.14645C10.8417 5.95118 11.1583 5.95118 11.3536 6.14645L14.3536 9.14645C14.5488 9.34171 14.5488 9.65829 14.3536 9.85355L11.3536 12.8536C11.1583 13.0488 10.8417 13.0488 10.6464 12.8536C10.4512 12.6583 10.4512 12.3417 10.6464 12.1464L13.2929 9.5L10.6464 6.85355C10.4512 6.65829 10.4512 6.34171 10.6464 6.14645Z" fill="var(--fill-0, #041B44)"/>
<path id="Vector (Stroke)_2" fill-rule="evenodd" clip-rule="evenodd" d="M2 3C2.27614 3 2.5 3.22386 2.5 3.5C2.5 4.95869 3.07946 6.35764 4.11091 7.38909C5.14236 8.42054 6.54131 9 8 9H14C14.2761 9 14.5 9.22386 14.5 9.5C14.5 9.77614 14.2761 10 14 10H8C6.27609 10 4.62279 9.31518 3.40381 8.09619C2.18482 6.87721 1.5 5.22391 1.5 3.5C1.5 3.22386 1.72386 3 2 3Z" fill="var(--fill-0, #041B44)"/>
</g>
</svg>
