<svg preserveAspectRatio="none" width="100%" height="100%" overflow="visible" style="display: block;" viewBox="0 0 12 11.9998" fill="none" xmlns="http://www.w3.org/2000/svg">
<g id="Vector">
<path id="Vector_2" d="M5.99823 0C3.66382 0 1.64388 1.33098 0.65417 3.27729L2.71462 4.87061C3.18922 3.43161 4.54356 2.39383 6.14099 2.39383C7.02074 2.39383 7.82524 2.70825 8.45032 3.23293L10.0786 1.60489C9.00981 0.609549 7.57251 0 5.9963 0H5.99823Z" fill="var(--fill-0, #E84236)"/>
<path id="Vector_3" d="M2.53505 5.99931C2.53505 5.6058 2.59679 5.2258 2.71447 4.87087L0.65402 3.27756C0.233441 4.09543 0 5.02133 0 6.00124C0 6.98115 0.241158 7.93212 0.671383 8.75771L2.73184 7.17983C2.60451 6.80947 2.53505 6.41404 2.53505 6.00124V5.99931Z" fill="var(--fill-0, #F9BB16)"/>
<path id="Vector_4" d="M8.11268 9.01958C7.54741 9.38994 6.87024 9.60599 6.14291 9.60599C4.56284 9.60599 3.222 8.59136 2.73197 7.17743L0.671517 8.75532C1.66702 10.6823 3.68117 11.9998 6.00014 11.9998C7.53198 11.9998 8.93069 11.4269 9.98793 10.4798L8.11268 9.01958Z" fill="var(--fill-0, #34A954)"/>
<path id="Vector_5" d="M9.54019 7.21443C9.27395 7.96093 8.76656 8.59363 8.11253 9.01993L9.98778 10.4801C11.2225 9.38257 12 7.78154 12 5.99919C12 5.62304 11.9653 5.25654 11.8997 4.89968H6.10224V7.2125H9.54212L9.54019 7.21443Z" fill="var(--fill-0, #517BBD)"/>
</g>
</svg>
