<svg preserveAspectRatio="none" width="100%" height="100%" overflow="visible" style="display: block;" viewBox="0 0 20 20" fill="none" xmlns="http://www.w3.org/2000/svg">
<g id="Icon">
<path id="Vector" d="M10.0168 0.991943C10.8747 0.992016 11.6228 1.46516 12.0119 2.16772C14.1288 2.9767 15.6416 5.03138 15.6418 7.42456V9.83374C15.6418 10.0128 15.6822 10.2746 15.7589 10.5544C15.8348 10.831 15.9324 11.077 16.0216 11.2332L16.9777 12.8201C17.7323 14.0778 17.1286 15.7163 15.7384 16.1765C14.8345 16.4785 13.9128 16.7049 12.9826 16.8601C12.5703 18.1046 11.3959 19.0085 10.0168 19.0085C9.16053 19.0085 8.36984 18.6536 7.80778 18.0916C7.46921 17.7529 7.20762 17.3309 7.05192 16.8621C6.11806 16.7068 5.19274 16.4797 4.28532 16.1765L4.28336 16.1755C3.58136 15.9379 3.05489 15.446 2.8195 14.8103C2.58395 14.1739 2.66387 13.4575 3.04801 12.8191L4.00504 11.2302V11.2292C4.0963 11.0758 4.19645 10.8304 4.2736 10.5525C4.3509 10.274 4.3917 10.0126 4.39176 9.83374V7.42456C4.39193 5.02365 5.90137 2.97192 8.02165 2.16577C8.41106 1.46407 9.15945 0.991943 10.0168 0.991943ZM11.4806 17.0476C10.5056 17.1272 9.526 17.1268 8.55094 17.0476C8.59525 17.1035 8.64145 17.1576 8.69157 17.2078C9.0295 17.5457 9.50633 17.7585 10.0168 17.7585C10.6075 17.7585 11.1361 17.4791 11.4806 17.0476ZM10.6808 3.11987C9.97689 3.03188 9.31079 3.08135 8.69254 3.25464C6.92517 3.81672 5.64194 5.47299 5.64176 7.42456V9.83374C5.6417 10.1629 5.5741 10.5426 5.47868 10.8865C5.38308 11.2309 5.2452 11.5899 5.07829 11.8699L5.07731 11.8728L4.1193 13.4636C3.91183 13.8084 3.89995 14.1298 3.99137 14.3767C4.08298 14.6241 4.30215 14.8618 4.68278 14.991C8.14552 16.1476 11.8812 16.1479 15.3439 14.991L15.3459 14.99C15.9712 14.7831 16.251 14.0388 15.9064 13.4636L14.9445 11.8669L14.9416 11.8621C14.7817 11.5848 14.648 11.2288 14.5539 10.8855C14.4599 10.5428 14.3918 10.1629 14.3918 9.83374V7.42456C14.3916 5.47814 13.1004 3.81722 11.3332 3.25464C11.1184 3.19462 10.9021 3.14744 10.6828 3.12085L10.6808 3.11987Z" fill="var(--fill-0, white)"/>
</g>
</svg>
