<svg preserveAspectRatio="none" width="100%" height="100%" overflow="visible" style="display: block;" viewBox="0 0 16 16" fill="none" xmlns="http://www.w3.org/2000/svg">
<g id="Icon">
<path id="Vector (Stroke)" fill-rule="evenodd" clip-rule="evenodd" d="M10.6464 8.64645C10.8417 8.45118 11.1583 8.45118 11.3536 8.64645L13.3536 10.6464C13.5488 10.8417 13.5488 11.1583 13.3536 11.3536L11.3536 13.3536C11.1583 13.5488 10.8417 13.5488 10.6464 13.3536C10.4512 13.1583 10.4512 12.8417 10.6464 12.6464L12.2929 11L10.6464 9.35355C10.4512 9.15829 10.4512 8.84171 10.6464 8.64645Z" fill="var(--fill-0, white)"/>
<path id="Vector (Stroke)_2" fill-rule="evenodd" clip-rule="evenodd" d="M2.5 11C2.5 10.7239 2.72386 10.5 3 10.5H13C13.2761 10.5 13.5 10.7239 13.5 11C13.5 11.2761 13.2761 11.5 13 11.5H3C2.72386 11.5 2.5 11.2761 2.5 11Z" fill="var(--fill-0, white)"/>
<path id="Vector (Stroke)_3" fill-rule="evenodd" clip-rule="evenodd" d="M5.35355 2.64645C5.54882 2.84171 5.54882 3.15829 5.35355 3.35355L3.70711 5L5.35355 6.64645C5.54882 6.84171 5.54882 7.15829 5.35355 7.35355C5.15829 7.54882 4.84171 7.54882 4.64645 7.35355L2.64645 5.35355C2.45118 5.15829 2.45118 4.84171 2.64645 4.64645L4.64645 2.64645C4.84171 2.45118 5.15829 2.45118 5.35355 2.64645Z" fill="var(--fill-0, white)"/>
<path id="Vector (Stroke)_4" fill-rule="evenodd" clip-rule="evenodd" d="M2.5 5C2.5 4.72386 2.72386 4.5 3 4.5H13C13.2761 4.5 13.5 4.72386 13.5 5C13.5 5.27614 13.2761 5.5 13 5.5H3C2.72386 5.5 2.5 5.27614 2.5 5Z" fill="var(--fill-0, white)"/>
</g>
</svg>
