<svg preserveAspectRatio="none" width="100%" height="100%" overflow="visible" style="display: block;" viewBox="0 0 24 24" fill="none" xmlns="http://www.w3.org/2000/svg">
<g id="PaperPlaneTilt">
<path id="Vector" d="M19.5097 2.64442C19.765 2.57063 20.0353 2.56682 20.2929 2.6327C20.5519 2.69895 20.7884 2.83333 20.9774 3.02235C21.1665 3.21142 21.3018 3.44787 21.3681 3.70692C21.434 3.96459 21.4293 4.23565 21.3554 4.4911L16.4364 21.9569C16.4361 21.958 16.4357 21.9598 16.4354 21.9608C16.3537 22.2569 16.1827 22.5207 15.9462 22.7167C15.7087 22.9135 15.4157 23.0319 15.1083 23.0565C14.801 23.081 14.4931 23.0108 14.2274 22.8544C13.9637 22.699 13.7537 22.4664 13.6259 22.1884L9.83192 14.1679L1.81141 10.3739C1.53354 10.2461 1.30171 10.0359 1.14637 9.77235C0.989884 9.50661 0.918683 9.19889 0.943247 8.89149C0.967843 8.58404 1.08632 8.29111 1.28309 8.0536C1.47914 7.81701 1.74378 7.647 2.03993 7.56532C2.04092 7.56504 2.04186 7.56461 2.04286 7.56434L19.5097 2.64442ZM2.43836 9.01063L2.44911 9.01551L10.2382 12.7001L14.1044 8.83485C14.3973 8.54236 14.8721 8.5422 15.1649 8.83485C15.4578 9.12774 15.4578 9.60348 15.1649 9.89637L11.2987 13.7616L14.9843 21.5507L14.9891 21.5614L14.9901 21.5565L19.91 4.08973L2.43836 9.01063ZM19.9179 4.08387C19.9187 4.08452 19.9197 4.08551 19.9208 4.08582C19.9224 4.08624 19.925 4.0863 19.9266 4.08582L19.7157 3.3661L19.9179 4.08387Z" fill="var(--fill-0, #041B44)"/>
</g>
</svg>
