<svg width="81" height="33" viewBox="0 0 81 33" fill="none" xmlns="http://www.w3.org/2000/svg">
<g id="Header">
<g id="Property 1=Home">
<g id="AppBar">
<g id="Title">
<g id="Opinion System Logo" clip-path="url(#clip0_2_10157)">
<g id="Group">
<g id="Group_2">
<g id="Group_3">
<g id="Group_4">
<path id="Vector" d="M35.0105 24.2404L34.1017 26.0802L32.0698 26.3763C31.9862 26.3881 31.9168 26.447 31.8919 26.5267C31.8655 26.6071 31.8873 26.6949 31.9477 26.7536L33.418 28.1868L33.0708 30.2098C33.0565 30.2927 33.0905 30.377 33.1594 30.4266C33.2269 30.4763 33.318 30.4824 33.3923 30.4427L35.2081 29.4878L35.2189 29.4936V24.1286C35.1359 24.1253 35.0494 24.1611 35.0105 24.2404Z" fill="#FFD328"/>
<path id="Vector_2" d="M37.1296 30.4693C37.1753 30.4693 37.2207 30.4543 37.2599 30.4267C37.3275 30.3771 37.3625 30.2928 37.3475 30.2099L37.0013 28.1869L38.4699 26.7537C38.5311 26.6951 38.5525 26.6073 38.5267 26.5268C38.5007 26.4471 38.431 26.3883 38.3471 26.3764L36.3165 26.0803L35.4081 24.2402C35.3727 24.168 35.2963 24.1319 35.2188 24.1287V29.4936L37.027 30.4427C37.0584 30.4603 37.0939 30.4693 37.1296 30.4693Z" fill="#D1DFEF"/>
</g>
<path id="Vector_3" d="M30.8159 26.5268C30.7901 26.4471 30.7216 26.3882 30.6376 26.3764L28.6067 26.0803L27.6976 24.2401C27.6618 24.1679 27.5865 24.1318 27.5089 24.1286C27.4254 24.1254 27.3386 24.1611 27.3004 24.2404L26.3916 26.0802L24.3593 26.3763C24.2761 26.3881 24.2075 26.447 24.1811 26.5267C24.1554 26.6071 24.1768 26.6949 24.2379 26.7536L25.7083 28.1868L25.3608 30.2098C25.3461 30.2926 25.3804 30.377 25.4486 30.4266C25.5172 30.4763 25.6087 30.4824 25.6826 30.4427L27.4992 29.4878L27.5092 29.4935L29.3161 30.4427C29.3486 30.4602 29.384 30.4691 29.419 30.4691C29.4651 30.4691 29.5108 30.4542 29.549 30.4266C29.618 30.377 29.6519 30.2926 29.6375 30.2098L29.2907 28.1868L30.76 26.7536C30.8208 26.695 30.8422 26.6071 30.8159 26.5268Z" fill="#FFD328"/>
<path id="Vector_4" d="M23.1043 26.5268C23.0786 26.4471 23.0092 26.3882 22.9253 26.3764L20.8944 26.0803L19.9853 24.2401C19.9499 24.1679 19.8738 24.1318 19.7977 24.1286C19.713 24.1254 19.6273 24.1611 19.5887 24.2404L18.6799 26.0802L16.6487 26.3763C16.5644 26.3881 16.4951 26.447 16.4694 26.5267C16.4433 26.6071 16.465 26.6949 16.5254 26.7536L17.9958 28.1868L17.6486 30.2098C17.6346 30.2926 17.669 30.377 17.7368 30.4266C17.8057 30.4763 17.8969 30.4824 17.9698 30.4427L19.7867 29.4878L19.7977 29.4935L21.6046 30.4427C21.6367 30.4602 21.6717 30.4691 21.7078 30.4691C21.7535 30.4691 21.7996 30.4542 21.8371 30.4266C21.906 30.377 21.94 30.2926 21.9257 30.2098L21.5795 28.1868L23.0481 26.7536C23.1083 26.695 23.1304 26.6071 23.1043 26.5268Z" fill="#FFD328"/>
<path id="Vector_5" d="M15.3937 26.5268C15.3673 26.4471 15.2988 26.3882 15.2148 26.3764L13.1842 26.0803L12.2747 24.2401C12.2398 24.1679 12.1633 24.1318 12.0864 24.1286C12.0018 24.1254 11.9168 24.1611 11.8774 24.2404L10.9697 26.0802L8.93667 26.3763C8.85309 26.3881 8.78449 26.447 8.75842 26.5267C8.73242 26.6071 8.75383 26.6949 8.81485 26.7536L10.2856 28.1868L9.93765 30.2098C9.92412 30.2926 9.95761 30.377 10.0262 30.4266C10.0944 30.4763 10.1851 30.4824 10.2591 30.4427L12.076 29.4878L12.0864 29.4935L13.8933 30.4427C13.9261 30.4602 13.9609 30.4691 13.9962 30.4691C14.0423 30.4691 14.0879 30.4542 14.1269 30.4266C14.1948 30.377 14.2298 30.2926 14.2147 30.2098L13.8679 28.1868L15.3372 26.7536C15.3984 26.695 15.4191 26.6071 15.3937 26.5268Z" fill="#FFD328"/>
<path id="Vector_6" d="M7.682 26.5268C7.65623 26.4471 7.58733 26.3882 7.50406 26.3764L5.47288 26.0803L4.56404 24.2401C4.52833 24.1679 4.45225 24.1318 4.37616 24.1286C4.29143 24.1254 4.20571 24.1612 4.16679 24.2405L3.25803 26.0803L1.2257 26.3764C1.14281 26.3881 1.07322 26.4471 1.04753 26.5268C1.02145 26.6071 1.04286 26.695 1.10389 26.7537L2.57462 28.1868L2.22638 30.2098C2.21277 30.2927 2.24596 30.3771 2.31493 30.4267C2.38314 30.4763 2.4746 30.4824 2.54816 30.4428L4.36545 29.4879L4.37616 29.4936L6.18267 30.4428C6.21486 30.4603 6.25057 30.4692 6.28521 30.4692C6.33094 30.4692 6.37705 30.4542 6.41529 30.4267C6.48419 30.3771 6.51814 30.2927 6.50384 30.2098L6.15728 28.1868L7.62626 26.7537C7.68659 26.695 7.70808 26.6071 7.682 26.5268Z" fill="#FFD328"/>
</g>
</g>
<g id="Group_5">
<g id="Group_6">
<path id="Vector_7" d="M19.4148 10.8565C19.4148 15.7838 15.2507 19.7387 10.2496 19.3939C6.02944 19.1029 2.61027 15.684 2.31908 11.4638C1.97397 6.46247 5.92888 2.2981 10.8564 2.2981C12.3447 2.2981 13.7439 2.67854 14.963 3.34665L16.5814 1.63297C14.7446 0.490369 12.5431 -0.121003 10.1899 0.0200065C4.74353 0.346301 0.33554 4.76087 0.0188809 10.2079C-0.148204 13.0822 0.803609 15.7321 2.47928 17.7624L1.4211 21.2405C1.35052 21.4723 1.55576 21.6944 1.79251 21.6423L6.2106 20.6698C7.76659 21.4078 9.52523 21.7881 11.3812 21.7005C16.9617 21.4368 21.4827 16.8783 21.7041 11.296C21.789 9.15678 21.2512 7.15038 20.2621 5.43739L18.7942 7.65714C19.1932 8.64582 19.4148 9.72495 19.4148 10.8565Z" fill="white"/>
</g>
<path id="Vector_8" d="M20.6536 0.415641L10.8662 10.7788L7.53553 7.90099L6.54884 8.88759L5.19824 10.2954L10.8661 15.7949L20.9046 0.614002C21.0119 0.450205 20.7883 0.273332 20.6536 0.415641Z" fill="#1CB68D"/>
</g>
<g id="Group_7">
<path id="Vector_9" d="M33.6126 7.15694C32.5853 6.00715 31.2291 5.42407 29.5817 5.42407C28.1838 5.42407 27.0374 5.82928 26.1604 6.63106V5.59475H23.7642V20.8075H26.1604V16.0089C27.0305 16.8203 28.1412 17.2302 29.475 17.2302C31.193 17.2302 32.585 16.647 33.6107 15.4988C34.6277 14.3758 35.1433 12.972 35.1433 11.3271C35.1433 9.68257 34.6277 8.27898 33.6126 7.15694ZM32.7468 11.3271C32.7468 12.3883 32.4516 13.2369 31.8452 13.9209C31.2071 14.6356 30.3969 14.983 29.3684 14.983C28.33 14.983 27.5363 14.6387 26.9408 13.9287C26.3583 13.2426 26.0753 12.3917 26.0753 11.3272C26.0753 10.2627 26.3583 9.41179 26.9424 8.7238C27.5367 8.01531 28.3304 7.67104 29.3684 7.67104C30.3966 7.67104 31.2071 8.01845 31.8443 8.73183C32.4516 9.41691 32.7468 10.266 32.7468 11.3271Z" fill="white"/>
<g id="Group_8">
<path id="Vector_10" d="M39.0476 5.59473H36.6514V17.0594H39.0476V5.59473Z" fill="white"/>
<path id="Vector_11" d="M39.0476 1.71143H36.6514V4.59875H39.0476V1.71143Z" fill="white"/>
</g>
<path id="Vector_12" d="M50.0098 6.74049C49.5871 6.30263 49.087 5.96922 48.5235 5.74968C47.9675 5.5335 47.3016 5.42407 46.5441 5.42407C45.7591 5.42407 45.0479 5.62465 44.4302 6.02053C44.1454 6.20306 43.8797 6.40678 43.635 6.63007V5.59475H41.2388V17.0594H43.635V10.5163C43.635 9.66697 43.9028 8.99243 44.4508 8.45723C45.0046 7.92821 45.6618 7.67104 46.4589 7.67104C47.2342 7.67104 47.8446 7.91674 48.3252 8.42213C48.8116 8.9334 49.048 9.61138 49.048 10.4949V17.0595H51.4445V10.4523C51.4444 8.92621 50.9593 7.67472 50.0098 6.74049Z" fill="white"/>
<g id="Group_9">
<path id="Vector_13" d="M55.925 5.59473H53.5288V17.0594H55.925V5.59473Z" fill="white"/>
<path id="Vector_14" d="M55.925 1.71143H53.5288V4.59875H55.925V1.71143Z" fill="white"/>
</g>
<path id="Vector_15" d="M67.3185 7.15075C66.249 6.00501 64.8445 5.42407 63.144 5.42407C61.4435 5.42407 60.0389 6.00501 58.9673 7.1532C57.9637 8.24854 57.4546 9.65267 57.4546 11.3271C57.4546 13.0016 57.9637 14.4057 58.9698 15.5032C60.0393 16.6492 61.4435 17.2302 63.144 17.2302C64.8442 17.2302 66.2487 16.6492 67.3207 15.5007C68.3245 14.4057 68.8337 13.0016 68.8337 11.3271C68.8337 9.65267 68.3245 8.24862 67.3185 7.15075ZM65.5704 13.9302C64.9757 14.6387 64.1821 14.983 63.144 14.983C62.1058 14.983 61.3122 14.6387 60.7166 13.9284C60.1341 13.2426 59.8508 12.3917 59.8508 11.3272C59.8508 10.2627 60.1342 9.41179 60.7182 8.7238C61.3125 8.01531 62.1059 7.67104 63.144 7.67104C64.1821 7.67104 64.9754 8.01531 65.5716 8.72533C66.1541 9.41171 66.4374 10.2626 66.4374 11.3271C66.4374 12.3916 66.1541 13.2426 65.5704 13.9302Z" fill="white"/>
<path id="Vector_16" d="M79.1343 6.74049C78.7117 6.30263 78.2115 5.96922 77.648 5.74968C77.092 5.5335 76.4261 5.42407 75.6686 5.42407C74.8836 5.42407 74.1724 5.62465 73.5547 6.02053C73.2699 6.20306 73.0042 6.40678 72.7595 6.63007V5.59475H70.3633V17.0594H72.7595V10.5163C72.7595 9.66697 73.0273 8.99243 73.5753 8.45723C74.1292 7.92821 74.7863 7.67104 75.5834 7.67104C76.3587 7.67104 76.9692 7.91674 77.4497 8.42213C77.9361 8.9334 78.1725 9.61138 78.1725 10.4949V17.0595H80.569V10.4523C80.5689 8.92621 80.0838 7.67472 79.1343 6.74049Z" fill="white"/>
</g>
<g id="Group_10">
<path id="Vector_17" d="M44.9015 27.3649C44.6297 27.2509 44.3296 27.1613 44.0094 27.0989C43.6969 27.0377 43.4047 26.9707 43.1405 26.899C42.8823 26.8292 42.6657 26.7397 42.4967 26.6326C42.3455 26.5372 42.272 26.4001 42.272 26.2138C42.272 25.7472 42.6533 25.5207 43.4379 25.5207C44.2295 25.5207 44.6467 25.7724 44.713 26.2903L44.723 26.3683H45.7279L45.7162 26.2687C45.6632 25.8054 45.4663 25.4276 45.1306 25.1451C44.7313 24.814 44.182 24.6462 43.4974 24.6462C42.7782 24.6462 42.2244 24.7895 41.8517 25.0722C41.4713 25.3601 41.2784 25.7698 41.2784 26.2899C41.2784 26.6454 41.3762 26.9292 41.5688 27.1333C41.7544 27.3304 41.9899 27.4877 42.2686 27.6008C42.542 27.7115 42.8419 27.799 43.1598 27.8609C43.4702 27.9216 43.7622 27.9905 44.0274 28.0657C44.2852 28.139 44.5014 28.2337 44.6701 28.347C44.8229 28.4501 44.8972 28.5948 44.8972 28.7893C44.8972 29.0851 44.745 29.2889 44.4328 29.4122C44.2883 29.4675 44.138 29.5062 43.9856 29.5269C43.6794 29.5686 43.3085 29.5867 42.9502 29.4764C42.4676 29.3133 42.2101 29.0076 42.163 28.5413L42.1549 28.461H41.1318L41.1372 28.5554C41.1672 29.0936 41.3903 29.5357 41.7989 29.8682C42.2407 30.2428 42.8415 30.4329 43.5844 30.4329C44.2813 30.4329 44.8432 30.2865 45.2551 29.9982C45.6769 29.703 45.8907 29.2706 45.8907 28.7134C45.8907 28.3516 45.7935 28.0607 45.6015 27.849C45.4157 27.6445 45.1803 27.4816 44.9015 27.3649Z" fill="white"/>
<path id="Vector_18" d="M49.9211 29.0358L48.2538 24.79L48.2317 24.7332H47.1353L49.3885 30.1791L48.3594 32.4975H49.4362L52.7288 24.7332H51.6424L49.9211 29.0358Z" fill="white"/>
<path id="Vector_19" d="M57.7141 27.3649C57.4421 27.2509 57.142 27.1613 56.8221 27.0989C56.5089 27.0377 56.2167 26.9704 55.9533 26.899C55.6953 26.8294 55.4786 26.7399 55.3095 26.6326C55.1585 26.5372 55.085 26.4001 55.085 26.2138C55.085 25.7472 55.4663 25.5207 56.2507 25.5207C57.0422 25.5207 57.4594 25.7724 57.526 26.2903L57.536 26.3683H58.5409L58.5292 26.2687C58.4762 25.8057 58.2791 25.4278 57.9433 25.1451C57.5443 24.8142 56.995 24.6462 56.3104 24.6462C55.5912 24.6462 55.0374 24.7895 54.6645 25.0722C54.284 25.3603 54.0912 25.77 54.0912 26.2899C54.0912 26.6454 54.1889 26.9292 54.3815 27.1333C54.567 27.3302 54.8027 27.4875 55.0817 27.6008C55.3553 27.7117 55.6552 27.7992 55.9729 27.8609C56.2837 27.9216 56.5758 27.9908 56.8405 28.0657C57.0978 28.139 57.3142 28.2337 57.4831 28.347C57.6358 28.4504 57.71 28.5948 57.71 28.7893C57.71 29.0848 57.5578 29.2889 57.2459 29.4122C57.1011 29.4675 56.9506 29.5062 56.7984 29.5269C56.4927 29.5686 56.1218 29.5869 55.7633 29.4764C55.2804 29.3135 55.0229 29.0076 54.9759 28.5413L54.9677 28.461H53.9448L53.9502 28.5552C53.9799 29.0934 54.2031 29.5355 54.6116 29.8682C55.0537 30.2428 55.6545 30.4329 56.3974 30.4329C57.0941 30.4329 57.656 30.2865 58.0678 29.9982C58.4899 29.703 58.7037 29.2709 58.7037 28.7134C58.7037 28.3514 58.6065 28.0607 58.4143 27.849C58.2288 27.6448 57.9931 27.4816 57.7141 27.3649Z" fill="white"/>
<path id="Vector_20" d="M62.2357 22.7881H61.242V24.7332H60.1333V25.6293H61.242V30.3458H62.2357V25.6293H63.4854V24.7332H62.2357V22.7881Z" fill="white"/>
<path id="Vector_21" d="M67.6233 24.6462C66.7901 24.6462 66.1028 24.9301 65.5797 25.4904C65.0881 26.0262 64.8389 26.7157 64.8389 27.5395C64.8389 28.3567 65.0995 29.0464 65.6132 29.5896C66.1425 30.1492 66.8371 30.4328 67.6777 30.4328C68.3387 30.4328 68.8885 30.2732 69.312 29.9586C69.7334 29.6457 70.0452 29.2299 70.239 28.7234L70.2852 28.6021H69.2103L69.1852 28.6501C68.8801 29.2323 68.3906 29.5152 67.6886 29.5152C67.1785 29.5152 66.7534 29.3554 66.4245 29.0401C66.1236 28.752 65.9365 28.3874 65.8672 27.9549H70.4079V27.5396C70.4079 26.7157 70.1587 26.0263 69.6666 25.49C69.1438 24.9302 68.4565 24.6462 67.6233 24.6462ZM65.8819 27.0156C65.9624 26.6063 66.1444 26.2675 66.4231 26.0079C66.7449 25.7135 67.1485 25.5642 67.6232 25.5642C68.0976 25.5642 68.5015 25.7135 68.8228 26.0074C69.102 26.2675 69.284 26.6065 69.3645 27.0156H65.8819Z" fill="white"/>
<path id="Vector_22" d="M79.9353 25.2825C79.7391 25.079 79.5118 24.9202 79.2594 24.8111C78.7538 24.5931 78.1611 24.6049 77.72 24.7716C77.2342 24.954 76.8589 25.2497 76.6025 25.6518C76.4293 25.3573 76.2018 25.1211 75.9239 24.9478C75.6026 24.7476 75.2487 24.6462 74.8718 24.6462C74.2075 24.6462 73.6831 24.8861 73.3089 25.3605V24.7332H72.3154V30.3457H73.3089V27.0071C73.3089 26.5503 73.442 26.2018 73.7168 25.9407C73.9772 25.6874 74.2943 25.564 74.6868 25.564C75.0552 25.564 75.3502 25.6897 75.5868 25.9465C75.8246 26.2183 75.9451 26.5715 75.9451 26.9961V30.3457H76.9388V27.0071C76.9388 26.5501 77.0719 26.2015 77.3465 25.9407C77.6031 25.6908 77.9296 25.564 78.3165 25.564C78.6849 25.564 78.9799 25.6897 79.2165 25.9465C79.4543 26.2183 79.5748 26.5715 79.5748 26.9961V30.3457H80.5685V26.9745C80.5686 26.3019 80.3557 25.733 79.9353 25.2825Z" fill="white"/>
</g>
</g>
</g>
</g>
</g>
</g>
</g>
<defs>
<clipPath id="clip0_2_10157">
<rect width="80.5688" height="32.4976" fill="white"/>
</clipPath>
</defs>
</svg>
