<svg preserveAspectRatio="none" width="100%" height="100%" overflow="visible" style="display: block;" viewBox="0 0 16 16" fill="none" xmlns="http://www.w3.org/2000/svg">
<g id="Opinion System OS Logo" clip-path="url(#clip0_0_3762)">
<path id="Vector" d="M14.3066 7.99998C14.3066 11.6309 11.2381 14.5452 7.55283 14.2911C4.443 14.0767 1.92349 11.5573 1.7089 8.44752C1.4546 4.76212 4.36894 1.69344 7.99997 1.69344C9.09669 1.69344 10.1277 1.9738 11.0261 2.46611L12.2187 1.20334C10.8652 0.361376 9.24288 -0.089147 7.50887 0.0147358C3.49549 0.255176 0.247282 3.50822 0.0139174 7.52202C-0.109228 9.64011 0.592181 11.5928 1.82698 13.0889L1.04719 15.6519C0.995203 15.8227 1.14643 15.9864 1.32086 15.948L4.57653 15.2314C5.72314 15.7752 7.01905 16.0555 8.38672 15.9908C12.4989 15.7965 15.8304 12.4374 15.9936 8.32387C16.0561 6.74748 15.6598 5.26902 14.931 4.00673L13.8493 5.64247C14.1432 6.37098 14.3066 7.1662 14.3066 7.99998Z" fill="var(--fill-0, #04326C)"/>
<path id="Vector_2" d="M15.2194 0.306195L8.00714 7.94269L5.5528 5.82212L4.82573 6.54915L3.83049 7.58653L8.00714 11.6391L15.4043 0.452399C15.4834 0.331654 15.3186 0.201358 15.2194 0.306195Z" fill="var(--fill-0, #23AD85)"/>
</g>
<defs>
<clipPath id="clip0_0_3762">
<rect width="16" height="16" fill="white"/>
</clipPath>
</defs>
</svg>
