<svg preserveAspectRatio="none" width="100%" height="100%" overflow="visible" style="display: block;" viewBox="0 0 36.5184 82.7781" fill="none" xmlns="http://www.w3.org/2000/svg">
<g id="Group">
<path id="Vector" fill-rule="evenodd" clip-rule="evenodd" d="M36.5184 6.04534C36.5184 2.68057 34.3234 1.04019 31.6182 2.38829L8.75061 13.7686C6.04541 15.1131 3.85042 18.9382 3.85042 22.303V78.6493C3.85042 82.0141 6.04541 83.6545 8.75061 82.3064L31.6182 70.926C34.3234 69.5816 36.5184 65.7565 36.5184 62.3917V6.04534Z" fill="var(--fill-0, #A8BCDD)"/>
<path id="Vector_2" fill-rule="evenodd" clip-rule="evenodd" d="M5.69304 82.4929L1.84262 80.5748C0.71943 80.0159 0 78.6568 0 76.7278V20.3851C0 17.0203 2.195 13.1952 4.9002 11.8508L27.7678 0.470421C28.9534 -0.117776 30.0399 -0.136043 30.8878 0.313325C32.2642 0.996511 33.6407 1.68335 35.0208 2.37019V2.40307C34.1399 1.78564 32.9396 1.73084 31.6219 2.38846L8.75429 13.7688C6.04908 15.1132 3.85409 18.9383 3.85409 22.3031V78.6495C3.85409 80.5748 4.57352 81.9375 5.69671 82.4965L5.69304 82.4929Z" fill="var(--fill-0, #041B44)"/>
<path id="Vector_3" fill-rule="evenodd" clip-rule="evenodd" d="M35.0171 7.19982C35.0171 4.55111 33.2883 3.26146 31.1594 4.32094L9.20576 15.2446C7.07684 16.3041 5.34801 19.3145 5.34801 21.9632V77.4912C5.34801 80.1399 7.07684 81.4296 9.20576 80.3701L31.1594 69.4464C33.2883 68.3869 35.0171 65.3765 35.0171 62.7278V7.19982Z" fill="var(--fill-0, white)"/>
<path id="Vector_4" fill-rule="evenodd" clip-rule="evenodd" d="M3.85042 72.2084L3.58981 22.1714C3.58981 18.8067 5.7848 14.9816 8.49001 13.6371L16.6754 9.82296L9.03325 13.9075C6.32805 15.2519 4.13305 19.077 4.13305 22.4418L3.85042 72.2084Z" fill="var(--fill-0, #041B44)"/>
<path id="Vector_5" fill-rule="evenodd" clip-rule="evenodd" d="M2.71254 28.8608C2.71254 28.3165 2.3565 27.6954 1.9197 27.4762C1.48291 27.257 1.12686 27.5237 1.12686 28.068V32.7663C1.12686 33.3107 1.48291 33.9317 1.9197 34.1509C2.3565 34.3701 2.71254 34.1034 2.71254 33.5591V28.8608Z" fill="var(--fill-0, #F0F6F9)"/>
<path id="Vector_6" fill-rule="evenodd" clip-rule="evenodd" d="M2.71254 36.6864C2.71254 36.142 2.3565 35.521 1.9197 35.3018C1.48291 35.0826 1.12686 35.3492 1.12686 35.8936V40.5919C1.12686 41.1362 1.48291 41.7573 1.9197 41.9765C2.3565 42.1957 2.71254 41.929 2.71254 41.3847V36.6864Z" fill="var(--fill-0, #F0F6F9)"/>
<path id="Vector_7" fill-rule="evenodd" clip-rule="evenodd" d="M13.4379 59.5822C13.4379 58.9429 13.0195 58.6287 12.5056 58.8844L9.70496 60.2764C9.19108 60.5321 8.77264 61.2628 8.77264 61.9022C8.77264 62.5415 9.19108 62.8557 9.70496 62.6L12.5056 61.208C13.0195 60.9523 13.4379 60.2216 13.4379 59.5822ZM23.3337 54.6575C23.3337 54.0181 22.9153 53.7039 22.4014 53.9597L16.1615 57.065C15.6476 57.3208 15.2292 58.0515 15.2292 58.6908C15.2292 59.3302 15.6476 59.6443 16.1615 59.3886L22.4014 56.2832C22.9153 56.0275 23.3337 55.2968 23.3337 54.6575ZM13.4379 42.9301C13.4379 42.2907 13.0195 41.9765 12.5056 42.2323L9.70496 43.6242C9.19108 43.8799 8.77264 44.6106 8.77264 45.25C8.77264 45.8893 9.19108 46.2035 9.70496 45.9478L12.5056 44.5558C13.0195 44.3001 13.4379 43.5694 13.4379 42.9301ZM23.3337 38.0053C23.3337 37.3659 22.9153 37.0517 22.4014 37.3075L16.1615 40.4129C15.6476 40.6686 15.2292 41.3993 15.2292 42.0386C15.2292 42.678 15.6476 42.9922 16.1615 42.7364L22.4014 39.631C22.9153 39.3753 23.3337 38.6446 23.3337 38.0053ZM18.5106 35.046C18.5106 34.4067 18.0922 34.0925 17.5783 34.3482L9.70496 38.2647C9.19108 38.5204 8.77264 39.2511 8.77264 39.8904C8.77264 40.5298 9.19108 40.844 9.70496 40.5882L17.5783 36.6718C18.0922 36.416 18.5106 35.6854 18.5106 35.046ZM27.2833 30.6802C27.2833 30.0409 26.8648 29.7267 26.351 29.9824L21.0103 32.6421C20.4964 32.8978 20.078 33.6285 20.078 34.2678C20.078 34.9072 20.4964 35.2214 21.0103 34.9656L26.351 32.306C26.8648 32.0502 27.2833 31.3196 27.2833 30.6802ZM21.7554 27.699C21.7554 27.0597 21.337 26.7455 20.8231 27.0012L9.70496 32.5325C9.19108 32.7882 8.77264 33.5189 8.77264 34.1582C8.77264 34.7976 9.19108 35.1118 9.70496 34.856L20.8231 29.3248C21.337 29.0691 21.7554 28.3384 21.7554 27.699ZM13.4379 26.0002C13.4379 25.3609 13.0195 25.0467 12.5056 25.3024L9.70496 26.6944C9.19108 26.9501 8.77264 27.6808 8.77264 28.3201C8.77264 28.9595 9.19108 29.2737 9.70496 29.0179L12.5056 27.626C13.0195 27.3702 13.4379 26.6396 13.4379 26.0002ZM23.6788 26.7418C23.6788 26.1025 24.0972 25.3718 24.6111 25.1161L31.0896 21.8938C31.6035 21.638 32.022 21.9486 32.022 22.5916C32.022 23.2346 31.6035 23.9616 31.0896 24.2173L24.6111 27.4396C24.0972 27.6954 23.6788 27.3848 23.6788 26.7418ZM23.3337 21.0791C23.3337 20.4397 22.9153 20.1255 22.4014 20.3813L16.1615 23.4867C15.6476 23.7424 15.2292 24.4731 15.2292 25.1124C15.2292 25.7518 15.6476 26.066 16.1615 25.8102L22.4014 22.7048C22.9153 22.4491 23.3337 21.7184 23.3337 21.0791ZM18.5106 18.1198C18.5106 17.4805 18.0922 17.1663 17.5783 17.422L9.70496 21.3385C9.19108 21.5942 8.77264 22.3249 8.77264 22.9642C8.77264 23.6036 9.19108 23.9178 9.70496 23.662L17.5783 19.7456C18.0922 19.4898 18.5106 18.7592 18.5106 18.1198ZM27.2833 13.754C27.2833 13.1147 26.8648 12.8005 26.351 13.0562L21.0103 15.7159C20.4964 15.9716 20.078 16.7023 20.078 17.3417C20.078 17.981 20.4964 18.2952 21.0103 18.0395L26.351 15.3798C26.8648 15.124 27.2833 14.3934 27.2833 13.754Z" fill="var(--fill-0, #DFE9EF)"/>
<path id="Vector_8" d="M16.1578 48.9764C16.1284 48.8887 16.0514 48.8559 15.9596 48.8851L13.6838 49.634L12.6744 47.8402C12.6341 47.7708 12.5533 47.7672 12.4652 47.8073C12.3735 47.8548 12.2744 47.9425 12.234 48.0631L11.2282 50.8433L8.9892 52.3156C8.89744 52.3777 8.82403 52.4873 8.79466 52.6006C8.7653 52.7139 8.78732 52.8125 8.85339 52.849L10.4684 53.8318L10.083 56.5243C10.0683 56.634 10.1051 56.7216 10.1785 56.7472C10.2519 56.7728 10.3547 56.7326 10.4354 56.6449L12.4469 54.4821H12.4579L14.4693 54.6903C14.5061 54.6903 14.5464 54.6867 14.5831 54.6684C14.6345 54.6428 14.6859 54.6027 14.7263 54.5442C14.8034 54.4456 14.8437 54.3177 14.8254 54.2264L14.44 51.8918L16.0881 49.2906C16.1578 49.1847 16.1798 49.0641 16.1505 48.9764" fill="var(--fill-0, #FFD500)"/>
<path id="Vector_9" d="M24.0862 45.25C24.0569 45.1623 23.9798 45.1294 23.888 45.1586L21.6123 45.9076L20.6029 44.1138C20.5625 44.0443 20.4817 44.0407 20.3936 44.0809C20.3019 44.1284 20.2028 44.2161 20.1624 44.3366L19.1567 47.1169L16.9176 48.5892C16.8258 48.6513 16.7524 48.7609 16.7231 48.8741C16.6937 48.9874 16.7157 49.086 16.7818 49.1226L18.3968 50.1053L18.0114 52.7979C17.9968 52.9075 18.0335 52.9952 18.1069 53.0207C18.1803 53.0463 18.2831 53.0061 18.3638 52.9184L20.3753 50.7556H20.3863L22.3978 50.9639C22.4345 50.9639 22.4748 50.9602 22.5115 50.942C22.5629 50.9164 22.6143 50.8762 22.6547 50.8177C22.7318 50.7191 22.7722 50.5912 22.7538 50.4999L22.3684 48.1654L24.0165 45.5642C24.0862 45.4582 24.1082 45.3376 24.0789 45.25" fill="var(--fill-0, #FFD500)"/>
<path id="Vector_10" d="M32.0146 41.213C31.9853 41.1253 31.9082 41.0924 31.8164 41.1216L29.5407 41.8706L28.5313 40.0767C28.4909 40.0073 28.4101 40.0037 28.322 40.0439C28.2303 40.0914 28.1312 40.179 28.0908 40.2996L27.0851 43.0798L24.846 44.5522C24.7543 44.6143 24.6808 44.7239 24.6515 44.8371C24.6221 44.9504 24.6441 45.049 24.7102 45.0856L26.3253 46.0683L25.9398 48.7609C25.9252 48.8705 25.9619 48.9582 26.0353 48.9837C26.1087 49.0093 26.2115 48.9691 26.2922 48.8814L28.3037 46.7186H28.3147L30.3262 46.9269C30.3629 46.9269 30.4033 46.9232 30.44 46.9049C30.4913 46.8794 30.5427 46.8392 30.5831 46.7807C30.6602 46.6821 30.7006 46.5542 30.6822 46.4629L30.2968 44.1284L31.9449 41.5271C32.0146 41.4212 32.0366 41.3006 32.0073 41.213" fill="var(--fill-0, #FFD500)"/>
</g>
</svg>
