<svg preserveAspectRatio="none" width="100%" height="100%" overflow="visible" style="display: block;" viewBox="0 0 62.843 66.3339" fill="none" xmlns="http://www.w3.org/2000/svg">
<g id="Group 1">
<g id="Vector">
<path d="M62.2902 39.4214C63.6973 31.711 62.3927 23.459 58.6653 16.6841C34.6235 -23.3352 -19.6385 16.4379 7.34803 54.2514C2.16691 71.5038 2.89376 65.625 18.1203 63.1238C35.8628 72.5476 59.0194 60.1992 62.2902 39.4214Z" fill="var(--fill-0, white)"/>
<path d="M62.2902 39.4214C63.6973 31.711 62.3927 23.459 58.6653 16.6841C34.6235 -23.3352 -19.6385 16.4379 7.34803 54.2514C2.16691 71.5038 2.89376 65.625 18.1203 63.1238C35.8628 72.5476 59.0194 60.1992 62.2902 39.4214Z" fill="url(#paint0_linear_0_3807)"/>
</g>
<path id="Vector_2" d="M50.0361 28.5994C49.887 28.1168 49.5143 27.7722 49.039 27.7033L37.6424 25.9406L32.5452 15.02C32.3495 14.5965 31.9302 14.3897 31.4922 14.3701C31.0169 14.3701 30.5324 14.5572 30.318 15.0397L25.2208 25.9406L13.8242 27.7033C13.3489 27.782 12.9762 28.1267 12.8271 28.5994C12.678 29.072 12.7898 29.5939 13.1346 29.9386L21.3815 38.4466L19.4246 50.4406C19.3501 50.9428 19.5365 51.4352 19.9185 51.7207C20.3006 52.0063 20.8038 52.0457 21.2231 51.8192L31.427 46.1472L31.4829 46.1866L41.6121 51.8192C41.7892 51.9177 41.9942 51.9768 42.1899 51.9768C42.4415 51.9768 42.6931 51.898 42.9167 51.7306C43.2988 51.445 43.4945 50.9231 43.4106 50.4504L41.4724 38.4565L49.7193 29.9484C50.0641 29.6038 50.1759 29.0819 50.0268 28.6092" fill="url(#paint1_linear_0_3807)"/>
</g>
<defs>
<linearGradient id="paint0_linear_0_3807" x1="31.4216" y1="4.56571e-07" x2="31.4216" y2="66.3339" gradientUnits="userSpaceOnUse">
<stop stop-color="white"/>
<stop offset="1" stop-color="#DFE9EF"/>
</linearGradient>
<linearGradient id="paint1_linear_0_3807" x1="31.4269" y1="14.3701" x2="31.4269" y2="51.9768" gradientUnits="userSpaceOnUse">
<stop offset="0.283654" stop-color="#FFD500"/>
<stop offset="1" stop-color="#F7B600"/>
</linearGradient>
</defs>
</svg>
