<svg width="32" height="32" viewBox="0 0 32 32" fill="none" xmlns="http://www.w3.org/2000/svg">
<path d="M26.2499 16C26.2499 21.9 21.2599 26.64 15.2799 26.22C10.2299 25.87 6.12991 21.78 5.77991 16.72C5.36991 10.73 10.0999 5.74 15.9999 5.74C17.7799 5.74 19.4599 6.2 20.9199 7L22.8599 4.95C20.6599 3.58 18.0199 2.85 15.2099 3.02C8.68991 3.41 3.40991 8.7 3.02991 15.22C2.82991 18.66 3.96991 21.83 5.97991 24.27L4.70991 28.43C4.62991 28.71 4.86991 28.97 5.14991 28.91L10.4399 27.75C12.2999 28.63 14.4099 29.09 16.6299 28.98C23.3099 28.66 28.7299 23.21 28.9899 16.52C29.0899 13.96 28.4499 11.56 27.2599 9.5L25.4999 12.16C25.9799 13.34 26.2399 14.64 26.2399 15.99L26.2499 16Z" fill="#041B44"/>
<path d="M27.73 3.49999L16.01 15.91L12.02 12.46L10.84 13.64L9.21997 15.33L16.01 21.92L28.03 3.73999C28.16 3.53999 27.89 3.32999 27.73 3.49999Z" fill="#20AD83"/>
</svg>