<svg preserveAspectRatio="none" width="100%" height="100%" overflow="visible" style="display: block;" viewBox="0 0 20 20" fill="none" xmlns="http://www.w3.org/2000/svg">
<g id="Icon">
<path id="Vector" d="M8.43741 2.5C11.3714 2.5 13.7499 4.87849 13.7499 7.8125C13.7499 9.70906 12.755 11.3716 11.2597 12.3115C11.6477 12.434 12.0287 12.5801 12.3993 12.7529C13.6401 13.3315 14.7391 14.1749 15.6191 15.2236C15.8409 15.4881 15.8063 15.8817 15.5419 16.1035C15.2775 16.3253 14.8839 16.2908 14.662 16.0264C13.8994 15.1175 12.9463 14.3872 11.871 13.8857C10.8013 13.3869 9.63608 13.1267 8.45596 13.124C8.44981 13.124 8.44357 13.125 8.43741 13.125C8.4309 13.125 8.42439 13.124 8.41788 13.124C7.2381 13.1269 6.0732 13.3871 5.00382 13.8857C3.9285 14.3872 2.97542 15.1174 2.2128 16.0264C1.99095 16.2908 1.59735 16.3253 1.33292 16.1035C1.06852 15.8817 1.034 15.4881 1.25577 15.2236C2.13573 14.1749 3.23474 13.3315 4.4755 12.7529C4.846 12.5802 5.22726 12.435 5.61514 12.3125C4.11969 11.3726 3.12491 9.70919 3.12491 7.8125C3.12491 4.87852 5.50344 2.50005 8.43741 2.5ZM17.4999 8.125C17.8451 8.125 18.1249 8.40482 18.1249 8.75V10H19.3749C19.7201 10 19.9999 10.2798 19.9999 10.625C19.9999 10.9702 19.7201 11.25 19.3749 11.25H18.1249V12.5C18.1249 12.8452 17.8451 13.125 17.4999 13.125C17.1548 13.125 16.8749 12.8451 16.8749 12.5V11.25H15.6249C15.2798 11.25 14.9999 10.9701 14.9999 10.625C14.9999 10.2799 15.2798 10 15.6249 10H16.8749V8.75C16.8749 8.40485 17.1548 8.12505 17.4999 8.125ZM8.43741 3.75C6.19379 3.75005 4.37491 5.56887 4.37491 7.8125C4.37491 10.0496 6.18325 11.8635 8.41788 11.874H8.45596C10.6911 11.8641 12.4999 10.05 12.4999 7.8125C12.4999 5.56884 10.6811 3.75 8.43741 3.75Z" fill="var(--fill-0, #041B44)"/>
</g>
</svg>
