<svg preserveAspectRatio="none" width="100%" height="100%" overflow="visible" style="display: block;" viewBox="0 0 16 16" fill="none" xmlns="http://www.w3.org/2000/svg">
<g id="Icon">
<path id="Vector" d="M12.1465 3.14652C12.3418 2.95126 12.6583 2.95126 12.8536 3.14652C13.0488 3.34178 13.0488 3.65829 12.8536 3.85355L8.70707 8.00004L12.8536 12.1465C13.0488 12.3418 13.0488 12.6583 12.8536 12.8536C12.6583 13.0488 12.3418 13.0488 12.1465 12.8536L8.00004 8.70707L3.85355 12.8536C3.65829 13.0488 3.34178 13.0488 3.14652 12.8536C2.95126 12.6583 2.95126 12.3418 3.14652 12.1465L7.29301 8.00004L3.14652 3.85355C2.95126 3.65829 2.95126 3.34178 3.14652 3.14652C3.34178 2.95126 3.65829 2.95126 3.85355 3.14652L8.00004 7.29301L12.1465 3.14652Z" fill="var(--fill-0, #43B6A3)"/>
</g>
</svg>
