<svg preserveAspectRatio="none" width="100%" height="100%" overflow="visible" style="display: block;" viewBox="0 0 24 24" fill="none" xmlns="http://www.w3.org/2000/svg">
<g id="Checks">
<path id="Vector (Stroke)" fill-rule="evenodd" clip-rule="evenodd" d="M14.4053 7.34467C14.6982 7.63756 14.6982 8.11244 14.4053 8.40533L6.15533 16.6553C5.86244 16.9482 5.38756 16.9482 5.09467 16.6553L0.96967 12.5303C0.676777 12.2374 0.676777 11.7626 0.96967 11.4697C1.26256 11.1768 1.73744 11.1768 2.03033 11.4697L5.625 15.0643L13.3447 7.34467C13.6376 7.05178 14.1124 7.05178 14.4053 7.34467Z" fill="#041B44"/>
<path id="Vector (Stroke)_2" fill-rule="evenodd" clip-rule="evenodd" d="M23.0303 7.34467C23.3232 7.63756 23.3232 8.11244 23.0303 8.40533L14.7803 16.6553C14.4874 16.9482 14.0126 16.9482 13.7197 16.6553L11.5259 14.4616C11.233 14.1687 11.233 13.6938 11.5259 13.4009C11.8188 13.108 12.2937 13.108 12.5866 13.4009L14.25 15.0643L21.9697 7.34467C22.2626 7.05178 22.7374 7.05178 23.0303 7.34467Z" fill="#041B44"/>
</g>
</svg>
