<svg preserveAspectRatio="none" width="100%" height="100%" overflow="visible" style="display: block;" viewBox="0 0 15 15" fill="none" xmlns="http://www.w3.org/2000/svg">
<g id="Icon">
<path id="Vector" d="M6.24558 12.4912C6.24553 12.6072 6.27782 12.721 6.33882 12.8197C6.39983 12.9185 6.48714 12.9983 6.59096 13.0501L7.84008 13.6747C7.93532 13.7223 8.04115 13.7448 8.14752 13.7399C8.25388 13.7351 8.35724 13.7032 8.4478 13.6472C8.53835 13.5912 8.61308 13.5129 8.66489 13.4199C8.7167 13.3269 8.74387 13.2222 8.74382 13.1157V8.74382C8.74396 8.43427 8.85903 8.13581 9.06671 7.90628L13.5779 2.91669C13.6588 2.8271 13.7119 2.71601 13.731 2.59684C13.75 2.47768 13.7342 2.35554 13.6853 2.24521C13.6364 2.13488 13.5566 2.04107 13.4555 1.97514C13.3544 1.9092 13.2364 1.87396 13.1157 1.87367H1.87368C1.75289 1.87372 1.63471 1.90878 1.53345 1.97463C1.43218 2.04047 1.35219 2.13426 1.30314 2.24464C1.2541 2.35502 1.23812 2.47725 1.25713 2.59653C1.27614 2.71581 1.32933 2.82702 1.41025 2.91669L5.92269 7.90628C6.13037 8.13581 6.24544 8.43427 6.24558 8.74382V12.4912Z" stroke="#102D69" stroke-width="1.24912" stroke-linecap="round" stroke-linejoin="round"/>
</g>
</svg>
