<svg preserveAspectRatio="none" width="100%" height="100%" overflow="visible" style="display: block;" viewBox="0 0 20 20" fill="none" xmlns="http://www.w3.org/2000/svg">
<g id="Google certif">
<g id="Group">
<path id="Vector" d="M17.9625 10.1813C17.9625 9.5125 17.9062 9.025 17.7937 8.51875H10.1625V11.5313H14.6375C14.55 12.2813 14.0625 13.4063 12.975 14.1688L12.9625 14.2688L15.375 16.1375L15.5438 16.1563C17.0813 14.7375 17.9625 12.6563 17.9625 10.1813Z" fill="#4285F4"/>
<path id="Vector_2" d="M10.1625 18.125C12.3563 18.125 14.2 17.4 15.5438 16.1563L12.9813 14.1688C12.2938 14.65 11.375 14.9812 10.1625 14.9812C8.0125 14.9812 6.1875 13.5625 5.5375 11.6062H5.44375L2.9375 13.5563L2.90625 13.65C4.24375 16.3063 6.9875 18.125 10.1625 18.125Z" fill="#34A853"/>
<path id="Vector_3" d="M5.5375 11.6062C5.36875 11.1 5.26875 10.5562 5.26875 10C5.26875 9.44375 5.36875 8.9 5.53125 8.39375V8.2875L2.9875 6.3125L2.90625 6.35C2.35625 7.45 2.0375 8.6875 2.0375 10C2.0375 11.3125 2.35625 12.5437 2.90625 13.65L5.54375 11.6125" fill="#FBBC05"/>
<path id="Vector_4" d="M10.1625 5.01875C11.6875 5.01875 12.7188 5.675 13.3063 6.23125L15.6 3.99375C14.1937 2.6875 12.3563 1.88125 10.1625 1.88125C6.9875 1.88125 4.2375 3.70625 2.90625 6.35625L5.53125 8.39375C6.1875 6.4375 8.0125 5.01875 10.1625 5.01875Z" fill="#EB4335"/>
</g>
<path id="Vector_5" fill-rule="evenodd" clip-rule="evenodd" d="M16.1063 17.9562L15.8187 18.125L15.5313 17.9562C14.2813 17.225 13.5125 16.4625 13.5125 15.0188V13.125H18.125V15.0188C18.125 16.4688 17.3563 17.225 16.1063 17.9562Z" fill="#FFD500"/>
<path id="Vector_6" d="M14.6125 15.3563L15.4125 16.1125L17.0187 14.5813" stroke="#FBFDFF" stroke-width="0.5" stroke-miterlimit="10" stroke-linecap="round"/>
</g>
</svg>
