<svg preserveAspectRatio="none" width="100%" height="100%" overflow="visible" style="display: block;" viewBox="0 0 20 20" fill="none" xmlns="http://www.w3.org/2000/svg">
<g id="Funnel">
<path id="Vector" fill-rule="evenodd" clip-rule="evenodd" d="M3.28906 3.125C3.28913 3.125 3.289 3.125 3.28906 3.125H16.7109C16.9534 3.12508 17.1908 3.19567 17.3939 3.32818C17.5969 3.46068 17.7571 3.64938 17.8548 3.87129C17.9525 4.0932 17.9835 4.33873 17.9441 4.57798C17.9049 4.81676 17.7971 5.039 17.634 5.21771C17.6336 5.21806 17.6333 5.2184 17.633 5.21875L12.5 10.8674V15.2867C12.5013 15.4946 12.4505 15.6995 12.3521 15.8827C12.2538 16.0655 12.1113 16.2209 11.9376 16.3344L9.44006 17.9968L9.43753 17.9985C9.24998 18.122 9.0326 18.1928 8.80826 18.2032C8.58392 18.2137 8.36091 18.1636 8.16266 18.058C7.96441 17.9525 7.79825 17.7955 7.68165 17.6036C7.56504 17.4117 7.50231 17.1918 7.50003 16.9673L7.49997 16.9609L7.5 10.8674L7.49834 10.8657L2.36699 5.21875C2.36671 5.21844 2.36643 5.21814 2.36615 5.21783C2.20296 5.0391 2.09516 4.81682 2.05585 4.57798C2.01648 4.33873 2.04754 4.0932 2.14524 3.87129C2.24295 3.64938 2.40308 3.46068 2.60614 3.32818C2.80906 3.19576 3.04609 3.12517 3.28838 3.125M16.7107 4.375H3.28926L3.29068 4.37655L8.42109 10.0223C8.63449 10.2527 8.75212 10.5556 8.75 10.8696V16.9546L11.25 15.2905L11.25 15.2891L11.25 10.8696C11.2479 10.5556 11.3655 10.2527 11.5789 10.0223L16.7093 4.37655L16.7107 4.375Z" fill="var(--fill-0, black)" fill-opacity="0.56"/>
</g>
</svg>
