<svg preserveAspectRatio="none" width="100%" height="100%" overflow="visible" style="display: block;" viewBox="0 0 20 20" fill="none" xmlns="http://www.w3.org/2000/svg">
<g id="logo-os/OS certif/white">
<g id="Group">
<path id="Vector" d="M16.4063 10C16.4063 13.6875 13.2875 16.65 9.55 16.3875C6.39375 16.1687 3.83125 13.6125 3.6125 10.45C3.35625 6.70625 6.3125 3.5875 10 3.5875C11.1125 3.5875 12.1625 3.875 13.075 4.375L14.2875 3.09375C12.9125 2.2375 11.2625 1.78125 9.50625 1.8875C5.43125 2.13125 2.13125 5.4375 1.89375 9.5125C1.76875 11.6625 2.48125 13.6438 3.7375 15.1688L2.94375 17.7688C2.89375 17.9438 3.04375 18.1062 3.21875 18.0687L6.525 17.3437C7.6875 17.8937 9.00625 18.1812 10.3937 18.1125C14.5687 17.9125 17.9563 14.5063 18.1188 10.325C18.1813 8.725 17.7813 7.225 17.0375 5.9375L15.9375 7.6C16.2375 8.3375 16.4 9.15 16.4 9.99375L16.4063 10Z" fill="white"/>
<path id="Vector_2" d="M17.3312 2.1875L10.0062 9.94375L7.5125 7.7875L6.775 8.525L5.7625 9.58125L10.0062 13.7L17.5188 2.3375C17.6 2.2125 17.4312 2.08125 17.3312 2.1875Z" fill="#20AD83"/>
</g>
<path id="Vector_3" fill-rule="evenodd" clip-rule="evenodd" d="M16.1063 17.9562L15.8187 18.125L15.5313 17.9562C14.2813 17.225 13.5125 16.4625 13.5125 15.0188V13.125H18.125V15.0188C18.125 16.4688 17.3563 17.225 16.1063 17.9562Z" fill="#FFD500"/>
<path id="Vector_4" d="M14.6125 15.3563L15.4125 16.1125L17.0187 14.5813" stroke="#FBFDFF" stroke-width="0.5" stroke-linecap="round" stroke-linejoin="round"/>
</g>
</svg>
