<svg preserveAspectRatio="none" width="100%" height="100%" overflow="visible" style="display: block;" viewBox="0 0 24 24" fill="none" xmlns="http://www.w3.org/2000/svg">
<g id="Group 6">
<path id="Vector" d="M21.4599 12C21.4599 17.4464 16.8572 21.8178 11.3293 21.4367C6.66456 21.1151 2.88523 17.336 2.56336 12.6713C2.1819 7.14318 6.55341 2.54017 12 2.54017C13.6451 2.54017 15.1916 2.96068 16.5391 3.69916L18.3281 1.80498C16.2977 0.542022 13.8643 -0.133748 11.2633 0.0221139C5.2432 0.382778 0.370885 5.26235 0.0208698 11.2831C-0.163816 14.4602 0.888258 17.3892 2.74044 19.6334L1.57079 23.4778C1.49278 23.7341 1.71964 23.9795 1.98133 23.922L6.8648 22.8471C8.5847 23.6627 10.5286 24.0832 12.5801 23.9863C18.7484 23.6949 23.7456 18.6561 23.9903 12.4859C24.0842 10.1213 23.4897 7.90356 22.3965 6.01014L20.7739 8.4637C21.2149 9.55651 21.4599 10.7493 21.4599 12Z" fill="var(--fill-0, white)"/>
<path id="Vector_2" d="M22.8295 0.459081L12.0111 11.9138L8.32958 8.73289L7.23896 9.82342L5.74609 11.3795L12.011 17.4583L23.1069 0.678336C23.2255 0.497286 22.9783 0.301781 22.8295 0.459081Z" fill="var(--fill-0, #1CB68D)"/>
</g>
</svg>
