<svg preserveAspectRatio="none" width="100%" height="100%" overflow="visible" style="display: block;" viewBox="0 0 20 20" fill="none" xmlns="http://www.w3.org/2000/svg">
<g id="Icon">
<path id="Vector" d="M8.49518 1.25721C8.72181 0.996858 9.11666 0.969055 9.37701 1.19569C9.63703 1.42238 9.66409 1.81729 9.43756 2.07753L8.26569 3.42128C8.8067 3.31333 9.38433 3.24942 10.0001 3.2494C14.3369 3.2494 17.8506 6.76314 17.8506 11.1C17.8505 15.4367 14.3368 18.9496 10.0001 18.9496C5.66345 18.9495 2.15065 15.4366 2.15045 11.1C2.15045 9.4888 2.6394 7.98537 3.47174 6.7367C3.66321 6.4495 4.05172 6.37141 4.33893 6.56288C4.626 6.75438 4.70321 7.14291 4.51178 7.43006C3.8111 8.48124 3.40045 9.74484 3.40045 11.1C3.40065 14.7462 6.35381 17.6995 10.0001 17.6996C13.6464 17.6996 16.6005 14.7463 16.6006 11.1C16.6006 7.4535 13.6465 4.4994 10.0001 4.4994C9.29786 4.49942 8.65171 4.59654 8.05475 4.75233L9.73444 5.97889C10.0129 6.18243 10.0745 6.57326 9.87115 6.85194C9.66773 7.13046 9.27683 7.1917 8.99811 6.98866L6.18951 4.93885C6.18315 4.93421 6.17803 4.92716 6.17194 4.92225C6.16439 4.91627 6.15491 4.91197 6.14752 4.90565C6.13644 4.896 6.12745 4.88369 6.11725 4.87342C6.10533 4.8615 6.09385 4.849 6.08307 4.83631C6.06636 4.81664 6.05107 4.79599 6.03717 4.77479C6.02878 4.76197 6.02014 4.74903 6.01276 4.73573C6.00173 4.7158 5.99216 4.69502 5.98346 4.6742C5.97585 4.65598 5.96879 4.63733 5.96295 4.61854C5.9572 4.59994 5.95229 4.58089 5.9483 4.5619C5.94418 4.54227 5.94077 4.52226 5.93854 4.50233C5.93633 4.48229 5.93587 4.46194 5.93561 4.44178C5.93535 4.42298 5.93515 4.40395 5.93658 4.38514C5.93818 4.36461 5.94077 4.34397 5.9444 4.32362C5.94802 4.30337 5.95241 4.28303 5.95807 4.26307C5.96313 4.24524 5.96992 4.22777 5.97662 4.21034C5.98483 4.18901 5.99327 4.16749 6.00397 4.14686C6.01137 4.1326 6.01979 4.11867 6.02838 4.10487C6.03654 4.09176 6.04356 4.07751 6.0528 4.06483C6.05974 4.05532 6.06885 4.04745 6.07623 4.03846C6.08003 4.03384 6.08304 4.02837 6.08698 4.02381L8.49518 1.25721Z" fill="#041B44"/>
</g>
</svg>
