<svg width="360" height="260" viewBox="0 0 360 260" fill="none" xmlns="http://www.w3.org/2000/svg">
<g id="cadenas" clip-path="url(#clip0_590_35761)">
<path id="Vector" opacity="0.38" d="M142.063 150.662C141.612 150.877 141.106 150.95 140.611 150.874C139.957 150.755 139.375 150.387 138.989 149.848C138.603 149.31 138.445 148.643 138.546 147.99C140.226 131.763 146.544 101.893 146.544 101.893C147.217 97.5717 151.229 95.2785 155.663 95.2071C166.553 95.2822 179.945 98.9898 179.945 98.9898C180.854 99.1313 181.669 99.6259 182.212 100.364C182.755 101.102 182.981 102.025 182.841 102.927C182.781 103.303 182.664 103.667 182.493 104.008C174.469 109.972 166.976 116.611 160.095 123.85C150.336 134.538 142.063 150.662 142.063 150.662Z" fill="black"/>
<path id="Vector_2" d="M147.655 84.9131C146.511 84.7329 145.344 84.7781 144.219 85.0468C143.094 85.3155 142.034 85.8016 141.099 86.4783C140.165 87.1549 139.374 88.009 138.772 88.9903C138.171 89.9717 137.77 91.0618 137.593 92.1981L123.239 190.208C123.06 191.343 123.108 192.503 123.381 193.621C123.654 194.738 124.146 195.791 124.829 196.72C125.513 197.649 126.373 198.435 127.362 199.034C128.351 199.632 129.449 200.03 130.592 200.206L247.652 218.442C248.796 218.622 249.963 218.576 251.088 218.308C252.213 218.039 253.273 217.553 254.207 216.876C255.142 216.199 255.933 215.345 256.535 214.364C257.136 213.383 257.537 212.293 257.714 211.156L272.96 113.286C273.137 112.149 273.087 110.989 272.812 109.871C272.538 108.753 272.044 107.699 271.36 106.77C270.675 105.841 269.813 105.056 268.824 104.458C267.834 103.86 266.735 103.461 265.591 103.285L147.655 84.9131Z" fill="#4294F7"/>
<path id="Vector_3" d="M202.149 172.895C201.834 174.919 200.722 176.733 199.059 177.94C197.396 179.146 195.317 179.645 193.28 179.328C191.244 179.011 189.416 177.903 188.198 176.248C186.981 174.592 186.474 172.526 186.789 170.502C186.789 170.502 188.573 159.788 188.952 156.62C189.051 155.677 188.924 154.723 188.579 153.838C188.235 152.953 187.683 152.161 186.971 151.528C184.676 148.965 183.244 145.755 182.876 142.346C182.509 138.938 183.223 135.502 184.919 132.521C186.615 129.54 189.208 127.163 192.335 125.723C195.462 124.283 198.966 123.852 202.356 124.491C205.745 125.13 208.851 126.806 211.238 129.285C213.624 131.764 215.172 134.922 215.665 138.315C216.157 141.708 215.569 145.167 213.983 148.208C212.397 151.248 209.892 153.718 206.82 155.27C206.82 155.27 204.506 156.19 203.924 160.347C203.342 164.504 202.149 172.895 202.149 172.895Z" fill="#144BD3"/>
<path id="Vector_4" opacity="0.6" d="M253.514 101.404C253.514 101.404 249.644 157.677 223.178 187.083C223.178 187.083 207.135 204.267 191.9 209.773L247.666 218.46C247.666 218.46 256.401 219.691 258.07 208.975L272.974 113.304C272.974 113.304 274.642 105.635 265.605 103.303L253.514 101.404Z" fill="#144BD3"/>
<path id="Vector_5" opacity="0.8" d="M261.629 78.5421C263.475 65.1323 259.946 51.5283 251.804 40.6585C243.661 29.7886 231.554 22.5226 218.092 20.4254C204.629 18.3282 190.886 21.5674 179.823 29.4453C168.759 37.3232 161.26 49.2093 158.94 62.5453L155.271 86.0996L169.754 88.3558L173.423 64.8015C175.116 55.2521 180.509 46.7504 188.444 41.1187C196.38 35.487 206.226 33.1744 215.871 34.677C225.517 36.1796 234.194 41.3777 240.04 49.1564C245.887 56.935 248.437 66.6741 247.145 76.2859L243.476 99.8402L257.959 102.096L261.629 78.5421Z" fill="white"/>
<path id="Vector_6" d="M162.865 77.4734C162.84 77.6348 162.847 77.7994 162.886 77.9581C162.926 78.1168 162.997 78.2669 163.095 78.3983C163.193 78.5297 163.316 78.6401 163.457 78.7239C163.599 78.8077 163.755 78.8627 163.918 78.8859C164.079 78.9132 164.244 78.9085 164.404 78.8713C164.563 78.8342 164.713 78.7651 164.845 78.6693C164.977 78.5735 165.088 78.4527 165.172 78.3134C165.256 78.174 165.312 78.0191 165.334 77.8581C165.334 77.8581 168.83 56.466 174.819 48.4007C180.808 40.3353 190.651 30.5847 201.444 28.0344C201.444 28.0344 203.894 26.5509 200.997 26.813C198.1 27.0751 187.659 27.2649 174.655 39.8149C161.652 52.3649 162.865 77.4734 162.865 77.4734Z" fill="white"/>
</g>
<path id="Vector_7" d="M333.862 112.689C333.862 112.689 326.316 110.752 324.33 121.026C324.33 121.026 324.71 112.333 317.74 111.32C317.74 111.32 324.359 110.593 325.827 102.595C325.827 102.595 326.995 112.46 333.862 112.689Z" fill="white"/>
<path id="Vector_8" d="M37.369 87.2958C37.369 87.2958 42.3393 88.4764 43.5205 81.7171C43.5205 81.7171 43.3734 87.4211 47.9553 88.0031C47.9553 88.0031 43.6241 88.5575 42.7562 93.8185C42.7562 93.8185 41.8739 87.365 37.369 87.2958Z" fill="white"/>
<path id="Vector_9" d="M299.179 121.086C299.179 121.086 294.459 122.012 293.565 115.849C293.565 115.849 293.519 121.025 289.185 121.42C289.185 121.42 293.246 122.049 293.894 126.844C293.894 126.844 294.934 121.018 299.179 121.086Z" fill="#4294F7"/>
<path id="Vector_10" d="M105 76.1772C105 76.1772 113.542 74.7505 114.819 86C114.819 86 115.18 76.5952 123 76.1136C123 76.1136 115.726 74.7506 114.819 66C114.819 66 112.635 76.5316 105 76.1772Z" fill="#321774"/>
<path id="Vector_11" d="M335.802 160.979C335.802 160.979 331.998 160.386 331.495 165.455C331.495 165.455 331.281 161.225 327.803 161.052C327.803 161.052 331.027 160.398 331.381 156.456C331.381 156.456 332.411 161.182 335.802 160.979Z" fill="#501DCC"/>
<path id="Vector_12" d="M32.5839 177.888C32.5839 177.888 36.3734 178.569 36.9931 173.513C36.9931 173.513 37.11 177.747 40.5832 177.999C40.5832 177.999 37.3441 178.579 36.9005 182.512C36.9005 182.512 35.9787 177.764 32.5839 177.888Z" fill="#501DCC"/>
<path id="Vector_13" d="M291.149 69.5771C291.149 69.5771 287.333 69.0634 286.936 74.1419C286.936 74.1419 286.633 69.9175 283.152 69.8181C283.152 69.8181 286.363 69.0961 286.633 65.147C286.633 65.147 287.763 69.8508 291.149 69.5771Z" fill="#321774"/>
<path id="Vector_14" d="M86.0336 117.481C86.0336 117.481 89.8348 118.094 90.3638 113.028C90.3638 113.028 90.5565 117.258 94.0336 117.449C94.0336 117.449 90.8054 118.087 90.4323 122.027C90.4323 122.027 89.4257 117.296 86.0336 117.481Z" fill="#4294F7"/>
<g id="Group 7560">
<g id="Rectangle 470" filter="url(#filter0_di_590_35761)">
<rect x="55" y="129" width="117" height="24" rx="12" fill="white"/>
</g>
<g id="Rectangle 473" filter="url(#filter1_di_590_35761)">
<rect x="55" y="161" width="117" height="24" rx="12" fill="white"/>
</g>
<g id="*****" filter="url(#filter2_i_590_35761)">
<path d="M75.4917 175.741V179.435H73.2666V175.741L70.1636 177.664L69.0132 175.741L72.2676 173.879L69.0132 172.018L70.1333 170.095L73.2666 172.048V168.294H75.4917V172.048L78.625 170.095L79.7451 172.018L76.4907 173.879L79.7451 175.741L78.5947 177.664L75.4917 175.741ZM95.2349 175.741V179.435H93.0098V175.741L89.9067 177.664L88.7563 175.741L92.0107 173.879L88.7563 172.018L89.8765 170.095L93.0098 172.048V168.294H95.2349V172.048L98.3682 170.095L99.4883 172.018L96.2339 173.879L99.4883 175.741L98.3379 177.664L95.2349 175.741ZM114.978 175.741V179.435H112.753V175.741L109.65 177.664L108.5 175.741L111.754 173.879L108.5 172.018L109.62 170.095L112.753 172.048V168.294H114.978V172.048L118.111 170.095L119.231 172.018L115.977 173.879L119.231 175.741L118.081 177.664L114.978 175.741ZM134.721 175.741V179.435H132.496V175.741L129.393 177.664L128.243 175.741L131.497 173.879L128.243 172.018L129.363 170.095L132.496 172.048V168.294H134.721V172.048L137.854 170.095L138.975 172.018L135.72 173.879L138.975 175.741L137.824 177.664L134.721 175.741ZM154.464 175.741V179.435H152.239V175.741L149.136 177.664L147.986 175.741L151.24 173.879L147.986 172.018L149.106 170.095L152.239 172.048V168.294H154.464V172.048L157.598 170.095L158.718 172.018L155.463 173.879L158.718 175.741L157.567 177.664L154.464 175.741Z" fill="#4294F7"/>
</g>
<g id="Rectangle 472" filter="url(#filter3_i_590_35761)">
<rect x="65" y="138" width="97" height="6" rx="3" fill="#4294F7"/>
</g>
</g>
<defs>
<filter id="filter0_di_590_35761" x="53" y="126" width="121" height="29" filterUnits="userSpaceOnUse" color-interpolation-filters="sRGB">
<feFlood flood-opacity="0" result="BackgroundImageFix"/>
<feColorMatrix in="SourceAlpha" type="matrix" values="0 0 0 0 0 0 0 0 0 0 0 0 0 0 0 0 0 0 127 0" result="hardAlpha"/>
<feOffset/>
<feGaussianBlur stdDeviation="1"/>
<feComposite in2="hardAlpha" operator="out"/>
<feColorMatrix type="matrix" values="0 0 0 0 0.196078 0 0 0 0 0.0901961 0 0 0 0 0.454902 0 0 0 1 0"/>
<feBlend mode="normal" in2="BackgroundImageFix" result="effect1_dropShadow_590_35761"/>
<feBlend mode="normal" in="SourceGraphic" in2="effect1_dropShadow_590_35761" result="shape"/>
<feColorMatrix in="SourceAlpha" type="matrix" values="0 0 0 0 0 0 0 0 0 0 0 0 0 0 0 0 0 0 127 0" result="hardAlpha"/>
<feOffset dy="-3"/>
<feGaussianBlur stdDeviation="2"/>
<feComposite in2="hardAlpha" operator="arithmetic" k2="-1" k3="1"/>
<feColorMatrix type="matrix" values="0 0 0 0 0.313726 0 0 0 0 0.113725 0 0 0 0 0.8 0 0 0 0.3 0"/>
<feBlend mode="normal" in2="shape" result="effect2_innerShadow_590_35761"/>
</filter>
<filter id="filter1_di_590_35761" x="53" y="158" width="121" height="29" filterUnits="userSpaceOnUse" color-interpolation-filters="sRGB">
<feFlood flood-opacity="0" result="BackgroundImageFix"/>
<feColorMatrix in="SourceAlpha" type="matrix" values="0 0 0 0 0 0 0 0 0 0 0 0 0 0 0 0 0 0 127 0" result="hardAlpha"/>
<feOffset/>
<feGaussianBlur stdDeviation="1"/>
<feComposite in2="hardAlpha" operator="out"/>
<feColorMatrix type="matrix" values="0 0 0 0 0.196078 0 0 0 0 0.0901961 0 0 0 0 0.454902 0 0 0 1 0"/>
<feBlend mode="normal" in2="BackgroundImageFix" result="effect1_dropShadow_590_35761"/>
<feBlend mode="normal" in="SourceGraphic" in2="effect1_dropShadow_590_35761" result="shape"/>
<feColorMatrix in="SourceAlpha" type="matrix" values="0 0 0 0 0 0 0 0 0 0 0 0 0 0 0 0 0 0 127 0" result="hardAlpha"/>
<feOffset dy="-3"/>
<feGaussianBlur stdDeviation="2"/>
<feComposite in2="hardAlpha" operator="arithmetic" k2="-1" k3="1"/>
<feColorMatrix type="matrix" values="0 0 0 0 0.313726 0 0 0 0 0.113725 0 0 0 0 0.8 0 0 0 0.3 0"/>
<feBlend mode="normal" in2="shape" result="effect2_innerShadow_590_35761"/>
</filter>
<filter id="filter2_i_590_35761" x="69.0132" y="166.294" width="89.7046" height="13.1406" filterUnits="userSpaceOnUse" color-interpolation-filters="sRGB">
<feFlood flood-opacity="0" result="BackgroundImageFix"/>
<feBlend mode="normal" in="SourceGraphic" in2="BackgroundImageFix" result="shape"/>
<feColorMatrix in="SourceAlpha" type="matrix" values="0 0 0 0 0 0 0 0 0 0 0 0 0 0 0 0 0 0 127 0" result="hardAlpha"/>
<feOffset dy="-3"/>
<feGaussianBlur stdDeviation="1"/>
<feComposite in2="hardAlpha" operator="arithmetic" k2="-1" k3="1"/>
<feColorMatrix type="matrix" values="0 0 0 0 0.0941176 0 0 0 0 0.32549 0 0 0 0 0.847059 0 0 0 1 0"/>
<feBlend mode="normal" in2="shape" result="effect1_innerShadow_590_35761"/>
</filter>
<filter id="filter3_i_590_35761" x="65" y="136" width="97" height="8" filterUnits="userSpaceOnUse" color-interpolation-filters="sRGB">
<feFlood flood-opacity="0" result="BackgroundImageFix"/>
<feBlend mode="normal" in="SourceGraphic" in2="BackgroundImageFix" result="shape"/>
<feColorMatrix in="SourceAlpha" type="matrix" values="0 0 0 0 0 0 0 0 0 0 0 0 0 0 0 0 0 0 127 0" result="hardAlpha"/>
<feOffset dy="-3"/>
<feGaussianBlur stdDeviation="1"/>
<feComposite in2="hardAlpha" operator="arithmetic" k2="-1" k3="1"/>
<feColorMatrix type="matrix" values="0 0 0 0 0.145098 0 0 0 0 0.403922 0 0 0 0 0.882353 0 0 0 1 0"/>
<feBlend mode="normal" in2="shape" result="effect1_innerShadow_590_35761"/>
</filter>
<clipPath id="clip0_590_35761">
<rect width="137" height="192" fill="white" transform="translate(150.553 9) rotate(8.85438)"/>
</clipPath>
</defs>
</svg>
