<svg width="180" height="73" viewBox="0 0 180 73" fill="none" xmlns="http://www.w3.org/2000/svg">
<g id="Login">
<g id="Logo">
<g id="Opinion System Logo" clip-path="url(#clip0_2_10157)">
<g id="Group">
<g id="Group_2">
<g id="Group_3">
<g id="Group_4">
<path id="Vector" d="M78.1065 54.079L76.0791 58.1834L71.546 58.8439C71.3595 58.8702 71.2048 59.0017 71.1492 59.1795C71.0903 59.3588 71.1388 59.5548 71.2735 59.6857L74.5538 62.883L73.7793 67.3962C73.7474 67.5811 73.8231 67.7693 73.9768 67.88C74.1275 67.9907 74.3307 68.0044 74.4965 67.9158L78.5473 65.7856L78.5714 65.7984V53.8296C78.3863 53.8222 78.1933 53.9021 78.1065 54.079Z" fill="#FFD500"/>
<path id="Vector_2" d="M82.8342 67.9748C82.9362 67.9748 83.0375 67.9414 83.1251 67.88C83.2759 67.7692 83.3538 67.5811 83.3204 67.3961L82.5481 62.883L85.8244 59.6856C85.9609 59.5549 86.0087 59.3589 85.9512 59.1795C85.8932 59.0017 85.7376 58.8703 85.5504 58.8439L81.0204 58.1833L78.9937 54.0781C78.9147 53.917 78.7443 53.8365 78.5713 53.8293V65.7981L82.6054 67.9156C82.6755 67.9548 82.7545 67.9748 82.8342 67.9748Z" fill="#DFE9EF"/>
</g>
<path id="Vector_3" d="M68.7479 59.1794C68.6904 59.0017 68.5376 58.8703 68.3503 58.8438L63.8195 58.1833L61.7913 54.078C61.7114 53.917 61.5434 53.8365 61.3704 53.8293C61.1839 53.8221 60.9903 53.9018 60.9052 54.0787L58.8776 58.1831L54.3438 58.8437C54.158 58.87 54.0052 59.0015 53.9462 59.1792C53.8888 59.3585 53.9366 59.5546 54.0729 59.6854L57.3533 62.8828L56.578 67.3959C56.5452 67.5808 56.6218 67.769 56.774 67.8797C56.927 67.9905 57.1311 68.0041 57.296 67.9156L61.3486 65.7853L61.3709 65.7981L65.402 67.9156C65.4745 67.9546 65.5535 67.9746 65.6316 67.9746C65.7345 67.9746 65.8363 67.9412 65.9216 67.8797C66.0755 67.769 66.1512 67.5808 66.1192 67.3959L65.3453 62.8828L68.6234 59.6854C68.759 59.5547 68.8068 59.3587 68.7479 59.1794Z" fill="#FFD500"/>
<path id="Vector_4" d="M51.5446 59.1794C51.4873 59.0017 51.3325 58.8703 51.1452 58.8438L46.6145 58.1833L44.5862 54.078C44.5074 53.917 44.3377 53.8365 44.1678 53.8293C43.9789 53.8221 43.7877 53.9018 43.7015 54.0787L41.6741 58.1831L37.1425 58.8437C36.9545 58.87 36.7998 59.0015 36.7425 59.1792C36.6843 59.3585 36.7328 59.5546 36.8675 59.6854L40.1478 62.8828L39.3733 67.3959C39.3421 67.5808 39.4188 67.769 39.5702 67.8797C39.7239 67.9905 39.9272 68.0041 40.0898 67.9156L44.1432 65.7853L44.1678 65.7981L48.1988 67.9156C48.2705 67.9546 48.3486 67.9746 48.4291 67.9746C48.531 67.9746 48.634 67.9412 48.7176 67.8797C48.8713 67.769 48.9471 67.5808 48.9152 67.3959L48.1429 62.8828L51.4192 59.6854C51.5535 59.5547 51.6028 59.3587 51.5446 59.1794Z" fill="#FFD500"/>
<path id="Vector_5" d="M34.3428 59.1794C34.2839 59.0017 34.1309 58.8703 33.9436 58.8438L29.4135 58.1833L27.3845 54.078C27.3065 53.917 27.1359 53.8365 26.9644 53.8293C26.7756 53.8221 26.5861 53.9018 26.4982 54.0787L24.473 58.1831L19.9375 58.8437C19.7511 58.87 19.598 59.0015 19.5399 59.1792C19.4818 59.3585 19.5296 59.5546 19.6658 59.6854L22.9469 62.8828L22.1706 67.3959C22.1404 67.5808 22.2152 67.769 22.3682 67.8797C22.5204 67.9905 22.7227 68.0041 22.8878 67.9156L26.9412 65.7853L26.9643 65.7981L30.9953 67.9156C31.0687 67.9546 31.1461 67.9746 31.225 67.9746C31.3278 67.9746 31.4297 67.9412 31.5165 67.8797C31.668 67.769 31.7461 67.5808 31.7125 67.3959L30.9389 62.8828L34.2167 59.6854C34.3532 59.5547 34.3994 59.3587 34.3428 59.1794Z" fill="#FFD500"/>
<path id="Vector_6" d="M17.1384 59.1794C17.0809 59.0017 16.9272 58.8703 16.7414 58.8438L12.21 58.1833L10.1824 54.078C10.1028 53.917 9.93302 53.8365 9.76328 53.8293C9.57425 53.8221 9.38301 53.902 9.29618 54.0789L7.2688 58.1833L2.73482 58.8438C2.54989 58.8701 2.39464 59.0017 2.33732 59.1794C2.27915 59.3587 2.32692 59.5547 2.46305 59.6856L5.74416 62.8829L4.96726 67.3961C4.93689 67.581 5.01093 67.7692 5.16481 67.8799C5.31699 67.9906 5.52102 68.0043 5.68514 67.9157L9.73939 65.7855L9.76328 65.7983L13.7935 67.9157C13.8653 67.9548 13.945 67.9748 14.0223 67.9748C14.1243 67.9748 14.2271 67.9413 14.3124 67.8799C14.4661 67.7692 14.5419 67.581 14.51 67.3961L13.7368 62.8829L17.014 59.6856C17.1486 59.5547 17.1966 59.3587 17.1384 59.1794Z" fill="#FFD500"/>
</g>
</g>
<g id="Group_5">
<g id="Group_6">
<path id="Vector_7" d="M43.3131 24.2201C43.3131 35.2127 34.0233 44.0357 22.8662 43.2665C13.4513 42.6173 5.82334 34.9899 5.17371 25.5749C4.4038 14.4173 13.2269 5.12691 24.2199 5.12691C27.5403 5.12691 30.6617 5.97564 33.3814 7.46615L36.9921 3.64305C32.8941 1.09398 27.9828 -0.269949 22.733 0.0446333C10.5825 0.772574 0.748568 10.6212 0.0421221 22.773C-0.330634 29.1855 1.7928 35.0972 5.53111 39.6268L3.17038 47.3861C3.01291 47.9033 3.4708 48.3987 3.99897 48.2825L13.8554 46.113C17.3268 47.7593 21.2502 48.6079 25.3907 48.4124C37.8405 47.8241 47.9266 37.6543 48.4204 25.2007C48.6098 20.4282 47.41 15.952 45.2035 12.1305L41.9287 17.0826C42.8187 19.2882 43.3131 21.6957 43.3131 24.2201Z" fill="white"/>
</g>
<path id="Vector_8" d="M46.0766 0.927057L24.2416 24.0465L16.811 17.6264L14.6098 19.8274L11.5967 22.9681L24.2414 35.2372L46.6365 1.36959C46.876 1.00417 46.377 0.609575 46.0766 0.927057Z" fill="#43B6A3"/>
</g>
<g id="Group_7">
<path id="Vector_9" d="M74.9868 15.9667C72.6951 13.4016 69.6694 12.1008 65.9942 12.1008C62.8755 12.1008 60.3181 13.0048 58.3615 14.7935V12.4816H53.0156V46.4202H58.3615V35.7148C60.3027 37.525 62.7805 38.4394 65.7562 38.4394C69.5889 38.4394 72.6944 37.1385 74.9827 34.5769C77.2514 32.0715 78.4018 28.9397 78.4018 25.2701C78.4018 21.6013 77.2514 18.4699 74.9868 15.9667ZM73.0552 25.2701C73.0552 27.6375 72.3967 29.5308 71.0439 31.0566C69.6203 32.6511 67.8128 33.4261 65.5184 33.4261C63.2017 33.4261 61.431 32.658 60.1024 31.074C58.803 29.5434 58.1716 27.6452 58.1716 25.2703C58.1716 22.8954 58.803 20.9972 60.106 19.4623C61.4319 17.8817 63.2025 17.1137 65.5184 17.1137C67.8121 17.1137 69.6203 17.8887 71.0419 19.4802C72.3967 21.0086 73.0552 22.9027 73.0552 25.2701Z" fill="white"/>
<g id="Group_8">
<path id="Vector_10" d="M87.1125 12.4814H81.7666V38.0583H87.1125V12.4814Z" fill="white"/>
<path id="Vector_11" d="M87.1125 3.81787H81.7666V10.2593H87.1125V3.81787Z" fill="white"/>
</g>
<path id="Vector_12" d="M111.568 15.0377C110.625 14.0608 109.509 13.317 108.252 12.8272C107.012 12.345 105.526 12.1008 103.836 12.1008C102.085 12.1008 100.498 12.5483 99.1204 13.4315C98.4849 13.8387 97.8923 14.2932 97.3463 14.7913V12.4816H92.0005V38.0585H97.3463V23.4613C97.3463 21.5665 97.9438 20.0616 99.1663 18.8676C100.402 17.6874 101.868 17.1137 103.646 17.1137C105.376 17.1137 106.738 17.6618 107.81 18.7893C108.895 19.9299 109.422 21.4424 109.422 23.4135V38.0587H114.769V23.3185C114.769 19.9139 113.686 17.1219 111.568 15.0377Z" fill="white"/>
<g id="Group_9">
<path id="Vector_13" d="M124.764 12.4814H119.418V38.0583H124.764V12.4814Z" fill="white"/>
<path id="Vector_14" d="M124.764 3.81787H119.418V10.2593H124.764V3.81787Z" fill="white"/>
</g>
<path id="Vector_15" d="M150.182 15.9527C147.796 13.3966 144.663 12.1006 140.869 12.1006C137.075 12.1006 133.942 13.3966 131.551 15.9581C129.312 18.4018 128.176 21.5343 128.176 25.2699C128.176 29.0055 129.312 32.138 131.556 34.5864C133.942 37.1432 137.075 38.4392 140.869 38.4392C144.662 38.4392 147.795 37.1432 150.187 34.5809C152.426 32.138 153.562 29.0055 153.562 25.2699C153.562 21.5343 152.426 18.402 150.182 15.9527ZM146.282 31.0772C144.955 32.6578 143.185 33.4258 140.869 33.4258C138.553 33.4258 136.782 32.6578 135.454 31.0731C134.154 29.5432 133.522 27.645 133.522 25.2701C133.522 22.8952 134.154 20.9969 135.457 19.4621C136.783 17.8815 138.553 17.1134 140.869 17.1134C143.185 17.1134 144.955 17.8815 146.285 19.4655C147.584 20.9968 148.216 22.895 148.216 25.2699C148.216 27.6448 147.584 29.5432 146.282 31.0772Z" fill="white"/>
<path id="Vector_16" d="M176.543 15.0377C175.6 14.0608 174.484 13.317 173.227 12.8272C171.986 12.345 170.501 12.1008 168.811 12.1008C167.06 12.1008 165.473 12.5483 164.095 13.4315C163.46 13.8387 162.867 14.2932 162.321 14.7913V12.4816H156.975V38.0585H162.321V23.4613C162.321 21.5665 162.918 20.0616 164.141 18.8676C165.377 17.6874 166.843 17.1137 168.621 17.1137C170.35 17.1137 171.712 17.6618 172.784 18.7893C173.87 19.9299 174.397 21.4424 174.397 23.4135V38.0587H179.743V23.3185C179.743 19.9139 178.661 17.1219 176.543 15.0377Z" fill="white"/>
</g>
<g id="Group_10">
<path id="Vector_17" d="M100.172 61.049C99.5657 60.7946 98.8961 60.5948 98.1818 60.4556C97.4847 60.3192 96.8327 60.1695 96.2435 60.0097C95.6674 59.8539 95.1841 59.6542 94.8072 59.4153C94.4698 59.2024 94.3058 58.8967 94.3058 58.481C94.3058 57.4402 95.1566 56.9347 96.9069 56.9347C98.6728 56.9347 99.6036 57.4963 99.7515 58.6517L99.7738 58.8256H102.016L101.99 58.6035C101.871 57.57 101.432 56.7271 100.683 56.0969C99.7924 55.3582 98.5668 54.9839 97.0396 54.9839C95.4352 54.9839 94.1997 55.3036 93.3682 55.9343C92.5195 56.5764 92.0892 57.4905 92.0892 58.6507C92.0892 59.4438 92.3073 60.0771 92.737 60.5324C93.1512 60.972 93.6765 61.323 94.2983 61.5753C94.9082 61.8223 95.5773 62.0175 96.2865 62.1556C96.9789 62.2911 97.6304 62.4448 98.2221 62.6125C98.7971 62.7759 99.2794 62.9873 99.6558 63.2401C99.9968 63.4701 100.162 63.7929 100.162 64.2269C100.162 64.8866 99.823 65.3414 99.1264 65.6164C98.804 65.7399 98.4687 65.8261 98.1287 65.8723C97.4457 65.9653 96.6183 66.0057 95.8189 65.7597C94.7422 65.3958 94.1676 64.7138 94.0627 63.6735L94.0446 63.4943H91.7622L91.7741 63.705C91.841 64.9057 92.3388 65.8919 93.2503 66.6337C94.236 67.4694 95.5763 67.8935 97.2338 67.8935C98.7884 67.8935 100.042 67.567 100.961 66.9239C101.902 66.2652 102.379 65.3006 102.379 64.0575C102.379 63.2504 102.162 62.6014 101.734 62.129C101.319 61.6729 100.794 61.3095 100.172 61.049Z" fill="#FFF8E3"/>
<path id="Vector_18" d="M111.37 64.7771L107.651 55.305L107.601 55.1782H105.155L110.182 67.3279L107.886 72.5H110.289L117.634 55.1782H115.21L111.37 64.7771Z" fill="#FFF8E3"/>
<path id="Vector_19" d="M128.756 61.049C128.149 60.7946 127.479 60.5948 126.766 60.4556C126.067 60.3192 125.415 60.169 124.827 60.0097C124.252 59.8545 123.769 59.6547 123.391 59.4153C123.054 59.2024 122.89 58.8967 122.89 58.481C122.89 57.4402 123.741 56.9347 125.491 56.9347C127.257 56.9347 128.188 57.4963 128.336 58.6517L128.358 58.8256H130.6L130.574 58.6035C130.456 57.5705 130.016 56.7276 129.267 56.0969C128.377 55.3587 127.151 54.9839 125.624 54.9839C124.02 54.9839 122.784 55.3036 121.952 55.9343C121.103 56.5769 120.673 57.491 120.673 58.6507C120.673 59.4438 120.891 60.0771 121.321 60.5324C121.735 60.9715 122.26 61.3224 122.883 61.5753C123.493 61.8228 124.162 62.018 124.871 62.1556C125.565 62.2911 126.216 62.4453 126.807 62.6125C127.381 62.7759 127.864 62.9873 128.24 63.2401C128.581 63.4706 128.747 63.7929 128.747 64.2269C128.747 64.8861 128.407 65.3414 127.711 65.6164C127.388 65.7399 127.052 65.8261 126.713 65.8723C126.031 65.9653 125.203 66.0062 124.404 65.7597C123.326 65.3963 122.752 64.7138 122.647 63.6735L122.629 63.4943H120.347L120.359 63.7045C120.425 64.9052 120.923 65.8914 121.834 66.6337C122.821 67.4694 124.161 67.8935 125.818 67.8935C127.372 67.8935 128.626 67.567 129.545 66.9239C130.486 66.2652 130.964 65.3011 130.964 64.0575C130.964 63.2499 130.747 62.6014 130.318 62.129C129.904 61.6734 129.378 61.3095 128.756 61.049Z" fill="#FFF8E3"/>
<path id="Vector_20" d="M138.843 50.8386H136.626V55.1781H134.153V57.1772H136.626V67.6995H138.843V57.1772H141.631V55.1781H138.843V50.8386Z" fill="#FFF8E3"/>
<path id="Vector_21" d="M150.862 54.9839C149.003 54.9839 147.47 55.6171 146.303 56.8671C145.206 58.0625 144.65 59.6006 144.65 61.4386C144.65 63.2616 145.232 64.8003 146.378 66.0122C147.559 67.2606 149.108 67.8934 150.984 67.8934C152.458 67.8934 153.685 67.5373 154.63 66.8355C155.57 66.1374 156.265 65.2097 156.698 64.0797L156.801 63.8093H154.403L154.347 63.9162C153.666 65.215 152.574 65.8462 151.008 65.8462C149.87 65.8462 148.922 65.4896 148.188 64.7863C147.517 64.1436 147.099 63.3302 146.945 62.3653H157.075V61.4388C157.075 59.6008 156.519 58.0627 155.421 56.8663C154.254 55.6173 152.721 54.9839 150.862 54.9839ZM146.977 60.2697C147.157 59.3567 147.563 58.6009 148.185 58.0215C148.903 57.3649 149.803 57.0317 150.862 57.0317C151.92 57.0317 152.822 57.3649 153.538 58.0205C154.161 58.6009 154.567 59.3572 154.747 60.2697H146.977Z" fill="#FFF8E3"/>
<path id="Vector_22" d="M178.33 56.4037C177.893 55.9495 177.386 55.5954 176.823 55.3519C175.695 54.8656 174.372 54.892 173.388 55.2637C172.304 55.6706 171.467 56.3305 170.895 57.2275C170.509 56.5703 170.001 56.0435 169.381 55.6568C168.665 55.2103 167.875 54.9841 167.034 54.9841C165.552 54.9841 164.382 55.5193 163.547 56.5777V55.1781H161.331V67.6993H163.547V60.251C163.547 59.232 163.844 58.4544 164.457 57.872C165.038 57.3068 165.746 57.0316 166.621 57.0316C167.443 57.0316 168.101 57.3119 168.629 57.885C169.16 58.4913 169.429 59.2793 169.429 60.2266V67.6993H171.646V60.251C171.646 59.2315 171.942 58.4539 172.555 57.872C173.128 57.3145 173.856 57.0316 174.719 57.0316C175.541 57.0316 176.199 57.3119 176.727 57.885C177.257 58.4913 177.526 59.2793 177.526 60.2266V67.6993H179.743V60.1783C179.743 58.6777 179.268 57.4087 178.33 56.4037Z" fill="#FFF8E3"/>
</g>
</g>
</g>
</g>
</g>
<defs>
<radialGradient id="paint0_radial_2_10157" cx="0" cy="0" r="1" gradientUnits="userSpaceOnUse" gradientTransform="translate(288.372 -118.254) rotate(138.065) scale(323.965 221.86)">
<stop stop-color="#2C95FF"/>
<stop offset="1" stop-color="#2C95FF" stop-opacity="0"/>
</radialGradient>
<radialGradient id="paint1_radial_2_10157" cx="0" cy="0" r="1" gradientTransform="matrix(301.5 -91 -21.1169 200.233 -97.6284 183.5)" gradientUnits="userSpaceOnUse">
<stop stop-color="#2C95FF"/>
<stop offset="1" stop-color="#2C95FF" stop-opacity="0"/>
</radialGradient>
<radialGradient id="paint2_radial_2_10157" cx="0" cy="0" r="1" gradientTransform="matrix(-1.00002 -223.5 678.146 -70.1239 103.872 678.5)" gradientUnits="userSpaceOnUse">
<stop offset="0.2"/>
<stop offset="1" stop-color="#041B44"/>
</radialGradient>
<radialGradient id="paint3_radial_2_10157" cx="0" cy="0" r="1" gradientUnits="userSpaceOnUse" gradientTransform="translate(351.372 405.246) rotate(-180) scale(304 244.264)">
<stop stop-color="#00D492"/>
<stop stop-color="#00D492" stop-opacity="0.830946"/>
<stop offset="1" stop-color="#00D492" stop-opacity="0"/>
</radialGradient>
<clipPath id="clip0_2_10157">
<rect width="179.744" height="72.5" fill="white"/>
</clipPath>
</defs>
</svg>
