<svg preserveAspectRatio="none" width="100%" height="100%" overflow="visible" style="display: block;" viewBox="0 0 20 20" fill="none" xmlns="http://www.w3.org/2000/svg">
<g id="Icon">
<path id="Vector" d="M13.125 2.13387C13.2906 2.13387 13.4546 2.16664 13.6074 2.23055C13.7594 2.29419 13.8978 2.38782 14.0137 2.50496L17.4951 5.9864C17.6123 6.1023 17.7059 6.24064 17.7695 6.39265C17.8334 6.54541 17.8662 6.70949 17.8662 6.87508C17.8662 7.04068 17.8334 7.20473 17.7695 7.3575C17.7059 7.5095 17.6122 7.64786 17.4951 7.76375L8.12012 17.1387C8.00442 17.2538 7.86674 17.3453 7.71582 17.4073C7.56528 17.469 7.40391 17.5005 7.24121 17.5001H3.75C3.4185 17.5001 3.10063 17.3683 2.86621 17.1339C2.6318 16.8995 2.50002 16.5816 2.5 16.2501V12.7589C2.4996 12.596 2.53088 12.434 2.59277 12.2833C2.65388 12.1346 2.74378 11.9994 2.85645 11.8848C2.85844 11.8828 2.86028 11.88 2.8623 11.878L12.2363 2.50496C12.3522 2.3878 12.4905 2.2942 12.6426 2.23055C12.7954 2.16664 12.9594 2.13387 13.125 2.13387ZM3.75 12.7589V16.2501H7.24121L14.1162 9.37508L10.625 5.88387L3.75 12.7589ZM13.1221 3.3868L11.5088 4.9991L15 8.49031L16.6162 6.87508L13.125 3.38387L13.1221 3.3868Z" fill="#2C95FF"/>
</g>
</svg>
