<svg preserveAspectRatio="none" width="100%" height="100%" overflow="visible" style="display: block;" viewBox="0 0 24 24" fill="none" xmlns="http://www.w3.org/2000/svg">
<g id="Icon Right">
<path id="Vector" d="M15.75 2.56064C15.9488 2.56064 16.1457 2.60009 16.3291 2.67685C16.5115 2.75323 16.6773 2.86539 16.8164 3.00595L20.9941 7.18369C21.1347 7.32276 21.2469 7.48857 21.3232 7.67099C21.4 7.85437 21.4395 8.0513 21.4395 8.25009C21.4394 8.4489 21.4 8.6458 21.3232 8.82919C21.2469 9.0116 21.1347 9.17743 20.9941 9.3165L9.75 20.5606C9.74823 20.5624 9.74691 20.5647 9.74512 20.5665C9.60626 20.7047 9.44094 20.8133 9.25977 20.8878C9.07893 20.9621 8.88493 21.0006 8.68945 21.0001H4.5C4.10219 21.0001 3.72075 20.8419 3.43945 20.5606C3.15816 20.2794 3.00002 19.8979 3 19.5001V15.3106C2.99952 15.1152 3.03706 14.9212 3.11133 14.7403C3.18466 14.5618 3.29245 14.3994 3.42773 14.2618L14.6836 3.00595C14.8227 2.86536 14.9885 2.75324 15.1709 2.67685C15.3543 2.6001 15.5512 2.56064 15.75 2.56064ZM4.5 15.3106V19.5001H8.68945L16.9395 11.2501L12.75 7.06064L4.5 15.3106ZM13.8105 6.00009L18 10.1895L19.9395 8.25009L15.75 4.06064L13.8105 6.00009Z" fill="#041B44"/>
</g>
</svg>
