<svg preserveAspectRatio="none" width="100%" height="100%" overflow="visible" style="display: block;" viewBox="0 0 20 20" fill="none" xmlns="http://www.w3.org/2000/svg">
<g id="Icon">
<path id="Vector" d="M13.1292 11.8792H12.4708L12.2375 11.6542C13.0542 10.7042 13.5458 9.47083 13.5458 8.12917C13.5458 5.1375 11.1208 2.7125 8.12917 2.7125C5.1375 2.7125 2.7125 5.1375 2.7125 8.12917C2.7125 11.1208 5.1375 13.5458 8.12917 13.5458C9.47083 13.5458 10.7042 13.0542 11.6542 12.2375L11.8792 12.4708V13.1292L16.0458 17.2875L17.2875 16.0458L13.1292 11.8792ZM8.12917 11.8792C6.05417 11.8792 4.37917 10.2042 4.37917 8.12917C4.37917 6.05417 6.05417 4.37917 8.12917 4.37917C10.2042 4.37917 11.8792 6.05417 11.8792 8.12917C11.8792 10.2042 10.2042 11.8792 8.12917 11.8792Z" fill="var(--fill-0, #8EA1B2)"/>
</g>
</svg>
