<svg preserveAspectRatio="none" width="100%" height="100%" overflow="visible" style="display: block;" viewBox="0 0 24 24" fill="none" xmlns="http://www.w3.org/2000/svg">
<g id="Icon">
<path id="Vector (Stroke)" fill-rule="evenodd" clip-rule="evenodd" d="M12 3.75C9.1005 3.75 6.75 6.1005 6.75 9C6.75 11.8995 9.1005 14.25 12 14.25C14.8995 14.25 17.25 11.8995 17.25 9C17.25 6.1005 14.8995 3.75 12 3.75ZM5.25 9C5.25 5.27208 8.27208 2.25 12 2.25C15.7279 2.25 18.75 5.27208 18.75 9C18.75 12.7279 15.7279 15.75 12 15.75C8.27208 15.75 5.25 12.7279 5.25 9Z" fill="var(--fill-0, #1C64B4)"/>
<path id="Vector (Stroke)_2" fill-rule="evenodd" clip-rule="evenodd" d="M12 15.7492C10.2884 15.7492 8.60689 16.1998 7.12461 17.0556C5.64233 17.9115 4.41148 19.1425 3.5558 20.6249C3.34873 20.9837 2.89005 21.1066 2.53131 20.8996C2.17257 20.6925 2.04962 20.2338 2.2567 19.8751C3.24402 18.1646 4.66423 16.7442 6.37455 15.7566C8.08487 14.7691 10.025 14.2492 12 14.2492C13.975 14.2492 15.9151 14.7691 17.6254 15.7566C19.3358 16.7442 20.756 18.1646 21.7433 19.8751C21.9504 20.2338 21.8274 20.6925 21.4687 20.8996C21.11 21.1066 20.6513 20.9837 20.4442 20.6249C19.5885 19.1425 18.3577 17.9115 16.8754 17.0556C15.3931 16.1998 13.7116 15.7492 12 15.7492Z" fill="var(--fill-0, #1C64B4)"/>
</g>
</svg>
