<svg preserveAspectRatio="none" width="100%" height="100%" overflow="visible" style="display: block;" viewBox="0 0 20 20" fill="none" xmlns="http://www.w3.org/2000/svg">
<g id="Icon">
<path id="Vector" d="M15.1828 3.93281C15.4268 3.68883 15.8225 3.68903 16.0666 3.93281C16.3107 4.17688 16.3107 4.57252 16.0666 4.8166L10.883 9.99921L16.0666 15.1828C16.3107 15.4269 16.3107 15.8225 16.0666 16.0666C15.8225 16.3107 15.4269 16.3107 15.1828 16.0666L9.99921 10.883L4.8166 16.0666C4.57252 16.3107 4.17688 16.3107 3.93281 16.0666C3.68903 15.8225 3.68883 15.4268 3.93281 15.1828L9.11542 9.99921L3.93281 4.8166C3.68912 4.57249 3.68886 4.17675 3.93281 3.93281C4.17675 3.68886 4.57249 3.68912 4.8166 3.93281L9.99921 9.11542L15.1828 3.93281Z" fill="var(--fill-0, #041B44)"/>
</g>
</svg>
