<svg preserveAspectRatio="none" width="100%" height="100%" overflow="visible" style="display: block;" viewBox="0 0 20 20" fill="none" xmlns="http://www.w3.org/2000/svg">
<g id="User">
<path id="Vector (Stroke)" fill-rule="evenodd" clip-rule="evenodd" d="M10 3.125C7.58375 3.125 5.625 5.08375 5.625 7.5C5.625 9.91625 7.58375 11.875 10 11.875C12.4162 11.875 14.375 9.91625 14.375 7.5C14.375 5.08375 12.4162 3.125 10 3.125ZM4.375 7.5C4.375 4.3934 6.8934 1.875 10 1.875C13.1066 1.875 15.625 4.3934 15.625 7.5C15.625 10.6066 13.1066 13.125 10 13.125C6.8934 13.125 4.375 10.6066 4.375 7.5Z" fill="var(--fill-0, white)"/>
<path id="Vector (Stroke)_2" fill-rule="evenodd" clip-rule="evenodd" d="M10 13.1243C8.57364 13.1243 7.17241 13.4998 5.93718 14.213C4.70194 14.9263 3.67624 15.9521 2.96317 17.1875C2.79061 17.4864 2.40837 17.5889 2.10942 17.4163C1.81048 17.2437 1.70802 16.8615 1.88058 16.5626C2.70335 15.1372 3.88686 13.9535 5.31213 13.1305C6.7374 12.3076 8.3542 11.8743 10 11.8743C11.6458 11.8743 13.2626 12.3076 14.6879 13.1305C16.1131 13.9535 17.2966 15.1372 18.1194 16.5626C18.292 16.8615 18.1895 17.2437 17.8906 17.4163C17.5916 17.5889 17.2094 17.4864 17.0368 17.1875C16.3238 15.9521 15.2981 14.9263 14.0628 14.213C12.8276 13.4998 11.4264 13.1243 10 13.1243Z" fill="var(--fill-0, white)"/>
</g>
</svg>
